<svg width="32" height="32" viewBox="0 0 32 32" fill="none" xmlns="http://www.w3.org/2000/svg">
<path fill-rule="evenodd" clip-rule="evenodd" d="M20.9497 22.3636C21.3402 22.7541 21.9734 22.7541 22.3639 22.3636C22.7544 21.9731 22.7544 21.3399 22.3639 20.9494L17.4142 15.9997L22.3639 11.0499C22.7544 10.6594 22.7544 10.0262 22.3639 9.63573C21.9734 9.2452 21.3402 9.2452 20.9497 9.63573L16 14.5854L11.0502 9.63567C10.6597 9.24514 10.0265 9.24514 9.63598 9.63567C9.24546 10.0262 9.24546 10.6594 9.63598 11.0499L14.5858 15.9997L9.63597 20.9494C9.24545 21.34 9.24545 21.9731 9.63597 22.3636C10.0265 22.7542 10.6597 22.7542 11.0502 22.3636L16 17.4139L20.9497 22.3636Z" fill="white"/>
</svg>
