<svg width="16" height="16" viewBox="0 0 16 16" fill="none" xmlns="http://www.w3.org/2000/svg">
<g clip-path="url(#clip0_2012_13526)">
<path d="M16 14.2222C16 14.6937 15.8127 15.1459 15.4793 15.4793C15.1459 15.8127 14.6937 16 14.2222 16H1.77778C1.30628 16 0.854097 15.8127 0.520699 15.4793C0.187301 15.1459 0 14.6937 0 14.2222V1.77778C0 1.30628 0.187301 0.854097 0.520699 0.520699C0.854097 0.187301 1.30628 0 1.77778 0L14.2222 0C14.6937 0 15.1459 0.187301 15.4793 0.520699C15.8127 0.854097 16 1.30628 16 1.77778V14.2222Z" fill="#3B40C3"/>
<path d="M6.9668 4.06978C6.9668 3.3809 7.40769 2.99512 8.00057 2.99512C8.59302 2.99512 9.03391 3.3809 9.03391 4.06978V11.8969C9.03391 12.5862 8.59302 12.9716 8.00057 12.9716C7.40813 12.9716 6.9668 12.5862 6.9668 11.8969V4.06978Z" fill="white"/>
</g>
<defs>
<clipPath id="clip0_2012_13526">
<rect width="16" height="16" fill="white"/>
</clipPath>
</defs>
</svg>
