<svg width="24" height="24" viewBox="0 0 24 24" fill="none" xmlns="http://www.w3.org/2000/svg">
<path d="M4.36603 21.2349V19.9989C4.37328 19.895 4.35828 19.7907 4.32204 19.693C4.28579 19.5953 4.22913 19.5064 4.15584 19.4323C4.08254 19.3583 3.9943 19.3007 3.89698 19.2634C3.79967 19.2261 3.69553 19.21 3.59151 19.2162C3.45537 19.2073 3.31933 19.2351 3.1976 19.2967C3.07586 19.3583 2.97287 19.4514 2.89937 19.5663C2.83238 19.4548 2.73657 19.3635 2.62201 19.3018C2.50745 19.2402 2.3784 19.2106 2.24843 19.2162C2.13514 19.2105 2.02233 19.2345 1.92117 19.2858C1.82 19.3371 1.73399 19.4139 1.67165 19.5087V19.2656H1.24316V21.2349H1.67575V20.1431C1.66639 20.0757 1.67208 20.0071 1.69239 19.9422C1.7127 19.8773 1.74713 19.8177 1.79322 19.7677C1.8393 19.7177 1.89589 19.6785 1.95893 19.6529C2.02196 19.6274 2.08987 19.6161 2.15778 19.6199C2.44205 19.6199 2.58627 19.8053 2.58627 20.139V21.2349H3.01885V20.1431C3.0102 20.0759 3.01638 20.0076 3.03695 19.9429C3.05752 19.8783 3.09198 19.819 3.13792 19.7692C3.18386 19.7193 3.24016 19.6801 3.30286 19.6543C3.36556 19.6285 3.43315 19.6168 3.50088 19.6199C3.79337 19.6199 3.93344 19.8053 3.93344 20.139V21.2349H4.36603ZM10.7683 19.2656H10.0679V18.6682H9.63536V19.2656H9.23572V19.657H9.63536V20.5551C9.63536 21.0124 9.81252 21.2844 10.3193 21.2844C10.5086 21.2849 10.6942 21.2321 10.8548 21.1319L10.7312 20.7652C10.6163 20.8338 10.4859 20.872 10.3522 20.8765C10.138 20.8765 10.0679 20.7446 10.0679 20.5469V19.657H10.7683V19.2656ZM14.4226 19.2162C14.3182 19.2131 14.2148 19.2382 14.1235 19.289C14.0321 19.3398 13.9561 19.4142 13.9036 19.5046V19.2656H13.4792V21.2349H13.9077V20.1308C13.9077 19.8053 14.0477 19.624 14.3279 19.624C14.4196 19.6228 14.5105 19.6396 14.5957 19.6735L14.7275 19.2697C14.6297 19.2347 14.5266 19.2166 14.4226 19.2162ZM8.89791 19.4221C8.65538 19.2779 8.37652 19.2064 8.09453 19.2162C7.59601 19.2162 7.27468 19.4551 7.27468 19.8465C7.27468 20.1679 7.51362 20.3656 7.95443 20.4274L8.15631 20.4562C8.39113 20.4892 8.50239 20.551 8.50239 20.6622C8.50239 20.8146 8.34581 20.9012 8.05332 20.9012C7.81803 20.908 7.58731 20.8354 7.39825 20.6952L7.19639 21.0289C7.44596 21.2032 7.74491 21.2927 8.0492 21.2844C8.61774 21.2844 8.94731 21.0165 8.94731 20.6416C8.94731 20.2956 8.68779 20.1143 8.25932 20.0525L8.05746 20.0236C7.87204 19.9989 7.72375 19.9619 7.72375 19.83C7.72375 19.6858 7.86378 19.5993 8.09864 19.5993C8.31429 19.6026 8.52556 19.6607 8.71251 19.7682L8.89791 19.4221ZM20.3759 19.2162C20.2714 19.2131 20.168 19.2382 20.0767 19.289C19.9853 19.3398 19.9093 19.4142 19.8568 19.5046V19.2656H19.4324V21.2349H19.8609V20.1308C19.8609 19.8053 20.001 19.624 20.2811 19.624C20.3727 19.6228 20.4638 19.6396 20.5489 19.6735L20.6807 19.2697C20.5829 19.2347 20.4798 19.2166 20.3759 19.2162ZM14.8552 20.2502C14.8495 20.3889 14.8729 20.5273 14.9239 20.6565C14.9749 20.7856 15.0524 20.9027 15.1514 21.0001C15.2503 21.0975 15.3686 21.1731 15.4985 21.2221C15.6284 21.271 15.7672 21.2922 15.9058 21.2844C16.1631 21.2973 16.4158 21.2135 16.6144 21.0495L16.4084 20.7034C16.2603 20.8163 16.0797 20.8785 15.8934 20.8806C15.7329 20.8708 15.5821 20.8002 15.4718 20.683C15.3616 20.5659 15.3002 20.4111 15.3002 20.2502C15.3002 20.0894 15.3616 19.9346 15.4718 19.8174C15.5821 19.7003 15.7329 19.6297 15.8934 19.6199C16.0797 19.622 16.2603 19.6841 16.4084 19.7971L16.6144 19.451C16.4158 19.287 16.163 19.2032 15.9058 19.2162C15.7672 19.2083 15.6285 19.2295 15.4985 19.2785C15.3686 19.3274 15.2504 19.403 15.1514 19.5004C15.0524 19.5978 14.975 19.7148 14.924 19.844C14.8729 19.9731 14.8495 20.1115 14.8552 20.2502ZM18.868 20.2502V19.2656H18.4395V19.5046C18.3664 19.4103 18.2717 19.3349 18.1635 19.2848C18.0553 19.2346 17.9366 19.2111 17.8174 19.2162C17.5519 19.2292 17.3016 19.3438 17.1183 19.5363C16.935 19.7288 16.8328 19.9844 16.8328 20.2503C16.8328 20.5161 16.935 20.7717 17.1183 20.9642C17.3016 21.1567 17.5519 21.2713 17.8174 21.2844C17.9366 21.2894 18.0553 21.2659 18.1635 21.2157C18.2717 21.1655 18.3664 21.0902 18.4395 20.9959V21.2349H18.868V20.2502ZM17.2736 20.2502C17.2802 20.134 17.3207 20.0223 17.3901 19.9288C17.4595 19.8354 17.5547 19.7643 17.664 19.7243C17.7734 19.6843 17.892 19.6772 18.0053 19.7038C18.1186 19.7304 18.2216 19.7896 18.3017 19.8741C18.3818 19.9586 18.4354 20.0646 18.4559 20.1792C18.4764 20.2938 18.4629 20.4119 18.4171 20.5189C18.3713 20.6259 18.2952 20.7172 18.1982 20.7814C18.1011 20.8457 17.9874 20.8802 17.871 20.8806C17.7894 20.8817 17.7085 20.8659 17.6333 20.8341C17.5581 20.8024 17.4903 20.7555 17.4342 20.6962C17.3781 20.637 17.3348 20.5668 17.3072 20.49C17.2795 20.4133 17.2681 20.3316 17.2736 20.2502ZM12.1032 19.2162C11.836 19.2302 11.5846 19.3472 11.4018 19.5426C11.219 19.738 11.119 19.9966 11.1227 20.2641C11.1264 20.5317 11.2336 20.7874 11.4218 20.9776C11.61 21.1678 11.8645 21.2777 12.132 21.2844C12.426 21.2947 12.7134 21.1964 12.9395 21.0083L12.7294 20.6911C12.5667 20.8215 12.3652 20.8939 12.1567 20.8971C12.0151 20.909 11.8745 20.8653 11.7645 20.7753C11.6546 20.6854 11.5839 20.5561 11.5676 20.415H13.0301C13.0343 20.3615 13.0384 20.3079 13.0384 20.2502C13.0343 19.6364 12.6552 19.2162 12.1032 19.2162ZM12.0949 19.5993C12.2243 19.5968 12.3495 19.6457 12.4429 19.7353C12.5364 19.8248 12.5905 19.9478 12.5934 20.0772H11.5717C11.5792 19.945 11.6382 19.821 11.7359 19.7317C11.8337 19.6424 11.9626 19.5949 12.0949 19.5993ZM22.8437 20.2502V18.4746H22.4152V19.5046C22.3421 19.4103 22.2474 19.3349 22.1392 19.2848C22.0309 19.2346 21.9123 19.2111 21.7931 19.2162C21.5276 19.2292 21.2773 19.3438 21.094 19.5363C20.9107 19.7288 20.8084 19.9844 20.8084 20.2503C20.8084 20.5161 20.9107 20.7717 21.094 20.9642C21.2773 21.1567 21.5276 21.2713 21.7931 21.2844C21.9123 21.2894 22.031 21.2659 22.1392 21.2157C22.2474 21.1655 22.3421 21.0902 22.4152 20.9959V21.2349H22.8437V20.2502ZM23.5579 20.9495C23.5845 20.9493 23.6109 20.9546 23.6354 20.9649C23.659 20.9747 23.6805 20.989 23.6987 21.0068C23.7168 21.0247 23.7313 21.0459 23.7414 21.0692C23.7517 21.0932 23.757 21.119 23.757 21.1451C23.757 21.1712 23.7517 21.1971 23.7414 21.2211C23.7313 21.2443 23.7168 21.2654 23.6987 21.2832C23.6804 21.3011 23.659 21.3154 23.6354 21.3254C23.6109 21.3359 23.5845 21.3412 23.5579 21.341C23.5187 21.3414 23.4803 21.3302 23.4474 21.3089C23.4145 21.2876 23.3886 21.257 23.373 21.2211C23.3627 21.1971 23.3574 21.1712 23.3574 21.1451C23.3574 21.119 23.3627 21.0932 23.373 21.0692C23.383 21.0459 23.3974 21.0247 23.4155 21.0068C23.4337 20.9888 23.4553 20.9746 23.479 20.9649C23.504 20.9545 23.5308 20.9493 23.5579 20.9495ZM23.5579 21.2978C23.5782 21.298 23.5983 21.2939 23.6169 21.2858C23.6348 21.278 23.6511 21.267 23.6649 21.2532C23.6933 21.2245 23.7093 21.1857 23.7093 21.1452C23.7093 21.1048 23.6933 21.066 23.6649 21.0373C23.6511 21.0235 23.6348 21.0125 23.6169 21.0049C23.5983 20.997 23.5782 20.993 23.5579 20.9932C23.5372 20.993 23.5168 20.997 23.4977 21.0049C23.4795 21.0124 23.463 21.0234 23.449 21.0373C23.4206 21.066 23.4046 21.1048 23.4046 21.1452C23.4046 21.1857 23.4206 21.2245 23.449 21.2532C23.463 21.2671 23.4795 21.2782 23.4977 21.2858C23.5167 21.2939 23.5372 21.2979 23.5579 21.2978ZM23.5694 21.0536C23.5887 21.0523 23.6078 21.0579 23.6234 21.0692C23.6296 21.0743 23.6346 21.0808 23.6379 21.0882C23.6412 21.0956 23.6427 21.1036 23.6423 21.1117C23.6426 21.1186 23.6413 21.1254 23.6387 21.1318C23.6361 21.1382 23.6322 21.144 23.6272 21.1488C23.6153 21.1594 23.6002 21.1657 23.5843 21.1668L23.6438 21.2354H23.5973L23.5421 21.1673H23.5243V21.2354H23.4855V21.0536H23.5694ZM23.5243 21.0877V21.1361H23.569C23.5775 21.1366 23.586 21.1345 23.5934 21.1301C23.5964 21.1281 23.5989 21.1253 23.6005 21.1221C23.6021 21.1189 23.6028 21.1153 23.6025 21.1117C23.6027 21.1081 23.602 21.1046 23.6004 21.1014C23.5988 21.0983 23.5964 21.0956 23.5934 21.0936C23.586 21.0893 23.5775 21.0873 23.569 21.0877H23.5243ZM21.2493 20.2502C21.2559 20.134 21.2965 20.0223 21.3658 19.9288C21.4352 19.8354 21.5304 19.7643 21.6398 19.7243C21.7491 19.6843 21.8677 19.6772 21.981 19.7038C22.0943 19.7305 22.1973 19.7897 22.2774 19.8742C22.3575 19.9586 22.411 20.0647 22.4315 20.1793C22.452 20.2938 22.4386 20.4119 22.3928 20.5189C22.347 20.6259 22.2708 20.7172 22.1738 20.7814C22.0768 20.8457 21.963 20.8802 21.8466 20.8806C21.7651 20.8817 21.6841 20.8659 21.609 20.8341C21.5338 20.8024 21.466 20.7555 21.4099 20.6962C21.3538 20.637 21.3105 20.5668 21.2829 20.49C21.2552 20.4133 21.2438 20.3316 21.2493 20.2502ZM6.78029 20.2502V19.2656H6.3518V19.5046C6.27867 19.4103 6.18403 19.3349 6.0758 19.2848C5.96757 19.2346 5.84889 19.2111 5.7297 19.2162C5.46421 19.2292 5.2139 19.3438 5.0306 19.5363C4.8473 19.7288 4.74507 19.9844 4.74507 20.2503C4.74507 20.5161 4.8473 20.7717 5.0306 20.9642C5.2139 21.1567 5.46421 21.2713 5.7297 21.2844C5.84889 21.2894 5.96757 21.2659 6.0758 21.2157C6.18403 21.1655 6.27867 21.0902 6.3518 20.9959V21.2349H6.78029V20.2502ZM5.18591 20.2502C5.19256 20.134 5.23308 20.0223 5.30247 19.9288C5.37185 19.8354 5.46707 19.7643 5.57638 19.7243C5.68569 19.6843 5.80431 19.6772 5.91762 19.7038C6.03092 19.7305 6.13396 19.7897 6.21402 19.8742C6.29408 19.9586 6.34766 20.0647 6.36816 20.1793C6.38866 20.2939 6.37518 20.4119 6.32938 20.5189C6.28359 20.6259 6.20747 20.7172 6.11043 20.7815C6.01339 20.8457 5.89966 20.8802 5.78327 20.8806C5.70169 20.8817 5.62076 20.8659 5.54559 20.8341C5.47042 20.8024 5.40264 20.7555 5.34652 20.6962C5.2904 20.637 5.24716 20.5668 5.21951 20.49C5.19187 20.4133 5.18043 20.3316 5.18591 20.2502Z" fill="#231F20"/>
<path d="M15.2451 4.25781H8.75537V15.92H15.2451V4.25781Z" fill="#FF5F00"/>
<path d="M9.16737 10.0887C9.16635 8.96551 9.42086 7.85685 9.91165 6.84661C10.4024 5.83636 11.1166 4.95101 12.0002 4.25759C10.906 3.39758 9.59201 2.86275 8.20829 2.71423C6.82457 2.56572 5.42699 2.80951 4.17527 3.41774C2.92356 4.02597 1.86822 4.97409 1.12988 6.15375C0.391546 7.33341 0 8.69699 0 10.0887C0 11.4803 0.391546 12.8439 1.12988 14.0236C1.86822 15.2032 2.92356 16.1514 4.17527 16.7596C5.42699 17.3678 6.82457 17.6116 8.20829 17.4631C9.59201 17.3146 10.906 16.7797 12.0002 15.9197C11.1166 15.2263 10.4024 14.341 9.91165 13.3307C9.42087 12.3205 9.16635 11.2118 9.16737 10.0887Z" fill="#EB001B"/>
<path d="M24 10.0887C24.0001 11.4803 23.6086 12.8439 22.8703 14.0235C22.132 15.2032 21.0767 16.1513 19.825 16.7596C18.5733 17.3678 17.1757 17.6116 15.792 17.4631C14.4083 17.3146 13.0943 16.7797 12.0002 15.9197C12.883 15.2256 13.5966 14.3401 14.0873 13.33C14.578 12.3199 14.833 11.2116 14.833 10.0887C14.833 8.96569 14.578 7.85738 14.0873 6.84729C13.5966 5.83721 12.883 4.95171 12.0002 4.25758C13.0943 3.39757 14.4083 2.86275 15.792 2.71423C17.1757 2.56572 18.5733 2.80951 19.825 3.41775C21.0767 4.02598 22.132 4.97412 22.8703 6.15377C23.6086 7.33343 24.0001 8.69701 24 10.0887Z" fill="#F79E1B"/>
<path d="M23.2925 14.6844V14.4456H23.3887V14.397H23.1436V14.4456H23.2399V14.6844H23.2925ZM23.7685 14.6844V14.3965H23.6933L23.6069 14.5945L23.5204 14.3965H23.4452V14.6844H23.4983V14.4672L23.5794 14.6544H23.6344L23.7155 14.4667V14.6844H23.7685Z" fill="#F79E1B"/>
</svg>
