<svg width="24" height="22" viewBox="0 0 24 22" fill="none" xmlns="http://www.w3.org/2000/svg">
<path d="M1.3335 4.33366C1.3335 2.8609 2.5274 1.66699 4.00016 1.66699H6.66683C8.13959 1.66699 9.3335 2.8609 9.3335 4.33366V17.667C9.3335 19.1398 8.13959 20.3337 6.66683 20.3337H4.00016C2.5274 20.3337 1.3335 19.1398 1.3335 17.667V4.33366Z" stroke="white" stroke-width="1.5"/>
<path d="M14.6668 4.33366C14.6668 2.8609 15.8607 1.66699 17.3335 1.66699H20.0002C21.4729 1.66699 22.6668 2.8609 22.6668 4.33366V17.667C22.6668 19.1398 21.4729 20.3337 20.0002 20.3337H17.3335C15.8607 20.3337 14.6668 19.1398 14.6668 17.667V4.33366Z" stroke="white" stroke-width="1.5"/>
</svg>
