<svg width="14" height="14" viewBox="0 0 14 14" fill="none" xmlns="http://www.w3.org/2000/svg">
<path fill-rule="evenodd" clip-rule="evenodd" d="M11.9504 13.3646C12.3409 13.7551 12.9741 13.7551 13.3646 13.3646C13.7551 12.974 13.7551 12.3409 13.3646 11.9504L8.41485 7.00063L13.3646 2.05092C13.7551 1.66039 13.7551 1.02723 13.3646 0.636702C12.974 0.246178 12.3409 0.246178 11.9504 0.636702L7.00064 5.58641L2.05087 0.636643C1.66034 0.246119 1.02718 0.246119 0.636655 0.636643C0.246131 1.02717 0.24613 1.66033 0.636655 2.05086L5.58643 7.00063L0.636643 11.9504C0.246119 12.3409 0.246119 12.9741 0.636643 13.3646C1.02717 13.7551 1.66033 13.7551 2.05086 13.3646L7.00064 8.41484L11.9504 13.3646Z" fill="white"/>
</svg>
