<svg width="22" height="14" viewBox="0 0 22 14" fill="none" xmlns="http://www.w3.org/2000/svg">
<path fill-rule="evenodd" clip-rule="evenodd" d="M2.36619 0.275047L0 13.997L11.7336 7.91004L22 13.997L19.1716 0.328144L17.7708 -0.000754575C17.5982 -0.0412856 17.4283 0.0759337 17.4049 0.251693L17.1903 1.86236C17.163 2.06775 16.9406 2.18422 16.7562 2.08976L15.3207 1.35442C15.1626 1.27345 14.9692 1.34676 14.9045 1.51216L14.3139 3.02236C14.2383 3.21554 13.9942 3.27559 13.8377 3.1395L12.619 2.08006C12.4848 1.96343 12.2793 1.98838 12.1769 2.1337L11.2452 3.45645C11.1257 3.6261 10.8741 3.6261 10.7546 3.45645L9.8229 2.1337C9.72054 1.98838 9.51497 1.96343 9.38082 2.08006L8.16213 3.1395C8.00558 3.27559 7.76147 3.21554 7.68591 3.02236L7.09528 1.51216C7.03059 1.34676 6.83718 1.27345 6.67911 1.35442L5.24362 2.08976C5.0592 2.18422 4.83682 2.06774 4.80947 1.86236L4.59493 0.251692C4.57152 0.0759331 4.4016 -0.0412855 4.22898 -0.000754487L2.65909 0.367861C2.54527 0.394586 2.43583 0.353209 2.36619 0.275047Z" fill="#CC0F3C"/>
</svg>
