<svg width="21" height="24" viewBox="0 0 21 24" fill="none" xmlns="http://www.w3.org/2000/svg">
<path d="M20.292 18.7033C19.929 19.5418 19.4994 20.3136 19.0016 21.0232C18.3231 21.9906 17.7676 22.6602 17.3395 23.0321C16.6758 23.6424 15.9647 23.955 15.2032 23.9728C14.6566 23.9728 13.9973 23.8172 13.23 23.5017C12.4601 23.1876 11.7525 23.0321 11.1056 23.0321C10.4271 23.0321 9.69941 23.1876 8.92106 23.5017C8.14153 23.8172 7.51355 23.9817 7.03342 23.9979C6.30322 24.0291 5.57539 23.7076 4.8489 23.0321C4.38521 22.6276 3.80523 21.9343 3.11043 20.9521C2.36498 19.9033 1.75211 18.687 1.27198 17.3004C0.75777 15.8026 0.5 14.3523 0.5 12.9482C0.5 11.3398 0.847544 9.95259 1.54367 8.79011C2.09076 7.85636 2.81859 7.11979 3.72953 6.57906C4.64046 6.03834 5.62473 5.76279 6.68469 5.74516C7.26467 5.74516 8.02524 5.92457 8.9704 6.27715C9.91288 6.63091 10.5181 6.81032 10.7834 6.81032C10.9817 6.81032 11.654 6.60054 12.7937 6.18234C13.8714 5.7945 14.781 5.63391 15.5262 5.69717C17.5454 5.86012 19.0624 6.6561 20.0712 8.09013C18.2654 9.18432 17.3721 10.7169 17.3898 12.6829C17.4061 14.2142 17.9617 15.4886 19.0535 16.5004C19.5483 16.97 20.1009 17.333 20.7156 17.5907C20.5823 17.9774 20.4416 18.3477 20.292 18.7033ZM15.661 0.480137C15.661 1.68041 15.2225 2.8011 14.3484 3.83841C13.2937 5.07155 12.0179 5.78413 10.6343 5.67168C10.6167 5.52769 10.6065 5.37614 10.6065 5.21688C10.6065 4.06462 11.1081 2.83147 11.9989 1.82321C12.4436 1.3127 13.0092 0.888228 13.6951 0.549615C14.3796 0.216055 15.0269 0.031589 15.6358 0C15.6536 0.160458 15.661 0.320926 15.661 0.480121V0.480137Z" fill="white"/>
</svg>
