<svg width="25" height="24" viewBox="0 0 25 24" fill="none" xmlns="http://www.w3.org/2000/svg">
<path d="M12.5 9.81836V14.4656H18.9582C18.6746 15.9602 17.8236 17.2257 16.5472 18.0766L20.4417 21.0984C22.7108 19.0039 24.0199 15.9276 24.0199 12.273C24.0199 11.4221 23.9436 10.6039 23.8017 9.81849L12.5 9.81836Z" fill="#4285F4"/>
<path d="M5.77461 14.2832L4.89625 14.9556L1.78711 17.3774C3.76165 21.2937 7.80862 23.9992 12.4995 23.9992C15.7394 23.9992 18.4557 22.9301 20.4412 21.0974L16.5467 18.0756C15.4776 18.7956 14.114 19.232 12.4995 19.232C9.37951 19.232 6.72868 17.1265 5.77952 14.2901L5.77461 14.2832Z" fill="#34A853"/>
<path d="M1.78718 6.62109C0.969042 8.23557 0.5 10.0574 0.5 11.9992C0.5 13.941 0.969042 15.7628 1.78718 17.3773C1.78718 17.3881 5.77997 14.2791 5.77997 14.2791C5.53998 13.5591 5.39812 12.7955 5.39812 11.9991C5.39812 11.2026 5.53998 10.439 5.77997 9.71902L1.78718 6.62109Z" fill="#FBBC05"/>
<path d="M12.4997 4.77818C14.267 4.77818 15.8379 5.38907 17.0925 6.56727L20.5288 3.13095C18.4452 1.18917 15.7398 0 12.4997 0C7.80887 0 3.76165 2.69454 1.78711 6.62183L5.77978 9.72001C6.72882 6.88362 9.37976 4.77818 12.4997 4.77818Z" fill="#EA4335"/>
</svg>
