<svg width="16" height="16" viewBox="0 0 16 16" fill="none" xmlns="http://www.w3.org/2000/svg">
<path d="M14.087 6.56938C14.8601 7.38277 14.8601 8.61854 14.087 9.43192C12.7832 10.8038 10.5438 12.6673 8.00016 12.6673C5.45649 12.6673 3.21716 10.8038 1.9133 9.43192C1.14023 8.61854 1.14023 7.38277 1.9133 6.56938C3.21716 5.19754 5.45649 3.33398 8.00016 3.33398C10.5438 3.33398 12.7832 5.19754 14.087 6.56938Z" stroke="white" stroke-width="1.5"/>
<path d="M10.0002 8.00065C10.0002 9.10522 9.10473 10.0007 8.00016 10.0007C6.89559 10.0007 6.00016 9.10522 6.00016 8.00065C6.00016 6.89608 6.89559 6.00065 8.00016 6.00065C9.10473 6.00065 10.0002 6.89608 10.0002 8.00065Z" stroke="white" stroke-width="1.5"/>
</svg>
