<svg width="160" height="46" viewBox="0 0 160 46" fill="none" xmlns="http://www.w3.org/2000/svg">
<path d="M159.111 40.695C159.111 43.1464 157.074 45.1321 154.555 45.1321H5.45101C2.93285 45.1321 0.888855 43.1464 0.888855 40.695V5.31079C0.888855 2.86055 2.93285 0.86792 5.45101 0.86792H154.554C157.074 0.86792 159.11 2.86055 159.11 5.31079L159.111 40.695Z" fill="black"/>
<path d="M154.074 0.92144C156.818 0.92144 159.05 3.08775 159.05 5.75V40.25C159.05 42.9123 156.818 45.0786 154.074 45.0786H5.92593C3.18222 45.0786 0.949629 42.9123 0.949629 40.25V5.75C0.949629 3.08775 3.18222 0.92144 5.92593 0.92144H154.074ZM154.074 3.8147e-06H5.92593C2.66815 3.8147e-06 0 2.58894 0 5.75V40.25C0 43.4111 2.66815 46 5.92593 46H154.074C157.332 46 160 43.4111 160 40.25V5.75C160 2.58894 157.332 3.8147e-06 154.074 3.8147e-06Z" fill="#A6A6A6"/>
<path d="M35.7071 22.7515C35.6728 19.045 38.8348 17.2418 38.9794 17.1579C37.1886 14.6244 34.4129 14.2783 33.4375 14.2507C31.1062 14.0126 28.8449 15.6042 27.6574 15.6042C26.4461 15.6042 24.6174 14.2737 22.6464 14.3128C20.1101 14.3507 17.7374 15.7756 16.436 17.9882C13.7504 22.4996 15.7534 29.1294 18.3264 32.776C19.6135 34.562 21.1175 36.5561 23.0861 36.4859C25.012 36.4089 25.7314 35.2945 28.0556 35.2945C30.3584 35.2945 31.0339 36.4859 33.0416 36.4411C35.1086 36.4089 36.4099 34.6471 37.652 32.845C39.1394 30.798 39.7368 28.7821 39.7605 28.6786C39.7119 28.6625 35.7462 27.1939 35.7071 22.7515Z" fill="white"/>
<path d="M31.9145 11.8518C32.9504 10.5948 33.6591 8.88476 33.4624 7.14941C31.9631 7.21381 30.0882 8.15566 29.0085 9.38501C28.0532 10.4683 27.1999 12.2439 27.4203 13.9137C29.1045 14.0356 30.8336 13.0892 31.9145 11.8518Z" fill="white"/>
<path d="M58.1338 11.5105C58.1338 12.864 57.7155 13.8829 56.8799 14.5672C56.106 15.1985 55.0061 15.5148 53.5815 15.5148C52.8752 15.5148 52.2707 15.4849 51.7646 15.4251V8.02945C52.4248 7.92595 53.1359 7.87305 53.9039 7.87305C55.2609 7.87305 56.2838 8.1594 56.9735 8.7321C57.7463 9.37955 58.1338 10.3053 58.1338 11.5105ZM56.8242 11.5438C56.8242 10.6664 56.5848 9.99365 56.106 9.52445C55.6272 9.0564 54.9279 8.8218 54.007 8.8218C53.6159 8.8218 53.2829 8.8471 53.0067 8.9V14.5223C53.1596 14.5453 53.4393 14.5557 53.8458 14.5557C54.7964 14.5557 55.53 14.2992 56.0467 13.7863C56.5635 13.2734 56.8242 12.5259 56.8242 11.5438Z" fill="white"/>
<path d="M65.0777 12.6926C65.0777 13.5264 64.8324 14.2095 64.3417 14.7454C63.8273 15.2962 63.1459 15.5711 62.2949 15.5711C61.4748 15.5711 60.8217 15.3077 60.3346 14.7787C59.8487 14.2509 59.6057 13.585 59.6057 12.7823C59.6057 11.9428 59.8558 11.254 60.3583 10.7192C60.8608 10.1845 61.5364 9.9165 62.3873 9.9165C63.2075 9.9165 63.8665 10.1799 64.3654 10.7077C64.8395 11.2206 65.0777 11.883 65.0777 12.6926ZM63.7894 12.7317C63.7894 12.2315 63.678 11.8025 63.4564 11.4449C63.1956 11.0125 62.8247 10.7963 62.3423 10.7963C61.8433 10.7963 61.4641 11.0125 61.2033 11.4449C60.9805 11.8025 60.8703 12.2384 60.8703 12.7536C60.8703 13.2538 60.9817 13.6828 61.2033 14.0404C61.4724 14.4728 61.8469 14.689 62.3305 14.689C62.8045 14.689 63.1767 14.4694 63.4445 14.0289C63.6745 13.6644 63.7894 13.232 63.7894 12.7317Z" fill="white"/>
<path d="M74.3885 10.0271L72.6404 15.4482H71.5026L70.7784 13.0941C70.5947 12.5065 70.4454 11.9223 70.3293 11.3427H70.3067C70.1989 11.9384 70.0495 12.5214 69.8575 13.0941L69.0884 15.4482H67.9375L66.2937 10.0271H67.5701L68.2018 12.6043C68.3547 13.2138 68.4804 13.7945 68.5811 14.3442H68.6036C68.6961 13.8911 68.849 13.3138 69.0647 12.6158L69.8575 10.0283H70.8697L71.6294 12.5606C71.8131 13.1781 71.9624 13.7727 72.0774 14.3454H72.1118C72.1959 13.7876 72.3227 13.1931 72.491 12.5606L73.169 10.0283H74.3885V10.0271Z" fill="white"/>
<path d="M80.8276 15.448H79.5855V12.343C79.5855 11.3862 79.211 10.9078 78.4596 10.9078C78.091 10.9078 77.7935 11.0389 77.5624 11.3023C77.3337 11.5656 77.2175 11.8761 77.2175 12.2315V15.4469H75.9755V11.576C75.9755 11.0999 75.96 10.5835 75.9304 10.0246H77.022L77.08 10.8722H77.1144C77.259 10.6088 77.4747 10.3915 77.758 10.2178C78.0946 10.0154 78.4714 9.91309 78.8839 9.91309C79.4054 9.91309 79.8391 10.0764 80.184 10.4041C80.6131 10.8055 80.8276 11.4046 80.8276 12.2004V15.448V15.448Z" fill="white"/>
<path d="M84.253 15.4481H83.0121V7.53955H84.253V15.4481Z" fill="white"/>
<path d="M91.5656 12.6926C91.5656 13.5264 91.3203 14.2095 90.8296 14.7454C90.3153 15.2962 89.6326 15.5711 88.7828 15.5711C87.9615 15.5711 87.3084 15.3077 86.8225 14.7787C86.3366 14.2509 86.0936 13.585 86.0936 12.7823C86.0936 11.9428 86.3437 11.254 86.8462 10.7192C87.3487 10.1845 88.0243 9.9165 88.8741 9.9165C89.6954 9.9165 90.3532 10.1799 90.8533 10.7077C91.3274 11.2206 91.5656 11.883 91.5656 12.6926ZM90.2761 12.7317C90.2761 12.2315 90.1647 11.8025 89.9431 11.4449C89.6836 11.0125 89.3114 10.7963 88.8302 10.7963C88.3301 10.7963 87.9508 11.0125 87.6913 11.4449C87.4684 11.8025 87.3582 12.2384 87.3582 12.7536C87.3582 13.2538 87.4696 13.6828 87.6913 14.0404C87.9603 14.4728 88.3348 14.689 88.8184 14.689C89.2924 14.689 89.6634 14.4694 89.9313 14.0289C90.1624 13.6644 90.2761 13.232 90.2761 12.7317Z" fill="white"/>
<path d="M97.5769 15.448H96.4616L96.3692 14.8236H96.3348C95.9532 15.3215 95.4092 15.5711 94.7028 15.5711C94.1754 15.5711 93.7488 15.4066 93.4276 15.08C93.136 14.7833 92.9902 14.4142 92.9902 13.976C92.9902 13.3136 93.2747 12.8088 93.8471 12.4592C94.4184 12.1096 95.2219 11.9382 96.2566 11.9463V11.8451C96.2566 11.1309 95.8702 10.7744 95.0963 10.7744C94.5452 10.7744 94.0593 10.909 93.6397 11.1758L93.3873 10.3846C93.9064 10.0729 94.5476 9.9165 95.3037 9.9165C96.7639 9.9165 97.4963 10.664 97.4963 12.159V14.1554C97.4963 14.6971 97.5236 15.1283 97.5769 15.448ZM96.2874 13.585V12.749C94.9173 12.726 94.2323 13.0905 94.2323 13.8415C94.2323 14.1244 94.3105 14.336 94.4705 14.4774C94.6305 14.6189 94.8344 14.689 95.0773 14.689C95.3499 14.689 95.6048 14.6051 95.837 14.4383C96.0705 14.2704 96.2139 14.0577 96.2673 13.7966C96.2803 13.738 96.2874 13.6667 96.2874 13.585Z" fill="white"/>
<path d="M104.634 15.4481H103.532L103.474 14.5776H103.44C103.088 15.24 102.488 15.5712 101.645 15.5712C100.972 15.5712 100.412 15.3147 99.9672 14.8018C99.5228 14.2889 99.3011 13.6231 99.3011 12.8054C99.3011 11.928 99.5417 11.2173 100.025 10.6745C100.493 10.1685 101.067 9.91545 101.75 9.91545C102.5 9.91545 103.025 10.1604 103.324 10.6515H103.347V7.53955H104.591V13.9876C104.591 14.5155 104.605 15.0019 104.634 15.4481ZM103.347 13.1619V12.258C103.347 12.1016 103.336 11.9751 103.313 11.8785C103.243 11.5887 103.093 11.3449 102.864 11.1483C102.633 10.9516 102.354 10.8527 102.033 10.8527C101.57 10.8527 101.207 11.031 100.94 11.3886C100.676 11.7463 100.542 12.2028 100.542 12.7606C100.542 13.2965 100.669 13.7312 100.924 14.0658C101.193 14.4223 101.555 14.6006 102.009 14.6006C102.417 14.6006 102.743 14.4522 102.991 14.1544C103.23 13.8795 103.347 13.5483 103.347 13.1619Z" fill="white"/>
<path d="M115.257 12.6926C115.257 13.5264 115.012 14.2095 114.521 14.7454C114.007 15.2962 113.327 15.5711 112.475 15.5711C111.656 15.5711 111.003 15.3077 110.514 14.7787C110.028 14.2509 109.785 13.585 109.785 12.7823C109.785 11.9428 110.035 11.254 110.538 10.7192C111.041 10.1845 111.716 9.9165 112.568 9.9165C113.387 9.9165 114.047 10.1799 114.545 10.7077C115.019 11.2206 115.257 11.883 115.257 12.6926ZM113.97 12.7317C113.97 12.2315 113.859 11.8025 113.637 11.4449C113.375 11.0125 113.006 10.7963 112.522 10.7963C112.024 10.7963 111.645 11.0125 111.383 11.4449C111.16 11.8025 111.05 12.2384 111.05 12.7536C111.05 13.2538 111.161 13.6828 111.383 14.0404C111.652 14.4728 112.027 14.689 112.51 14.689C112.984 14.689 113.358 14.4694 113.625 14.0289C113.854 13.6644 113.97 13.232 113.97 12.7317Z" fill="white"/>
<path d="M121.936 15.448H120.695V12.343C120.695 11.3862 120.32 10.9078 119.568 10.9078C119.199 10.9078 118.902 11.0389 118.672 11.3023C118.442 11.5656 118.327 11.8761 118.327 12.2315V15.4469H117.084V11.576C117.084 11.0999 117.069 10.5835 117.04 10.0246H118.13L118.188 10.8722H118.223C118.368 10.6088 118.584 10.3915 118.866 10.2178C119.204 10.0154 119.58 9.91309 119.993 9.91309C120.514 9.91309 120.947 10.0764 121.292 10.4041C121.722 10.8055 121.936 11.4046 121.936 12.2004V15.448V15.448Z" fill="white"/>
<path d="M130.295 10.9299H128.927V13.5634C128.927 14.2327 129.17 14.5673 129.651 14.5673C129.874 14.5673 130.059 14.5489 130.205 14.511L130.237 15.4252C129.991 15.5149 129.669 15.5598 129.272 15.5598C128.781 15.5598 128.4 15.4149 128.124 15.1251C127.846 14.8353 127.709 14.3477 127.709 13.6634V10.9299H126.892V10.0271H127.709V9.0335L128.926 8.677V10.026H130.294V10.9299H130.295Z" fill="white"/>
<path d="M136.87 15.4481H135.627V12.3661C135.627 11.3944 135.252 10.9079 134.502 10.9079C133.926 10.9079 133.533 11.1897 133.317 11.7532C133.28 11.8716 133.259 12.0165 133.259 12.1867V15.447H132.018V7.53955H133.259V10.8067H133.283C133.674 10.2122 134.234 9.91545 134.961 9.91545C135.475 9.91545 135.901 10.0788 136.239 10.4065C136.659 10.8148 136.87 11.422 136.87 12.2247V15.4481V15.4481Z" fill="white"/>
<path d="M143.653 12.4811C143.653 12.6973 143.637 12.879 143.607 13.0274H139.882C139.898 13.5633 140.076 13.9715 140.421 14.2544C140.736 14.5074 141.143 14.6339 141.641 14.6339C142.192 14.6339 142.694 14.5488 143.147 14.3775L143.341 15.2147C142.812 15.4378 142.188 15.5493 141.466 15.5493C140.601 15.5493 139.92 15.3021 139.427 14.8076C138.931 14.3131 138.686 13.6495 138.686 12.8169C138.686 11.9993 138.915 11.3184 139.376 10.7756C139.857 10.196 140.508 9.90625 141.329 9.90625C142.133 9.90625 142.743 10.196 143.155 10.7756C143.488 11.2356 143.653 11.8049 143.653 12.4811ZM142.468 12.1694C142.477 11.8118 142.396 11.5036 142.227 11.2437C142.012 10.9091 141.683 10.7411 141.239 10.7411C140.834 10.7411 140.503 10.9045 140.25 11.2322C140.044 11.4933 139.922 11.8049 139.882 12.1694H142.468Z" fill="white"/>
<path d="M63.5797 36.2297H60.8882L59.4138 31.7344H54.289L52.8846 36.2297H50.2642L55.3415 20.9255H58.4775L63.5797 36.2297ZM58.9693 29.8484L57.636 25.8521C57.495 25.4439 57.2307 24.4825 56.8408 22.9691H56.7933C56.6381 23.62 56.388 24.5814 56.0443 25.8521L54.7347 29.8484H58.9693V29.8484Z" fill="white"/>
<path d="M76.637 30.5766C76.637 32.4534 76.1143 33.9369 75.069 35.0259C74.1327 35.9954 72.97 36.4795 71.5822 36.4795C70.0841 36.4795 69.008 35.9574 68.3525 34.9132H68.3051V40.7265H65.7783V28.8274C65.7783 27.6475 65.7463 26.4366 65.6847 25.1946H67.9069L68.048 26.9437H68.0954C68.938 25.6258 70.2168 24.968 71.933 24.968C73.2746 24.968 74.3946 25.4821 75.2906 26.5113C76.189 27.5417 76.637 28.8964 76.637 30.5766ZM74.0628 30.6663C74.0628 29.5922 73.8139 28.7067 73.3137 28.0098C72.7674 27.283 72.0337 26.9196 71.114 26.9196C70.4906 26.9196 69.9241 27.122 69.418 27.521C68.9108 27.9235 68.5789 28.4491 68.4237 29.1C68.3454 29.4036 68.3063 29.652 68.3063 29.8475V31.6875C68.3063 32.4902 68.56 33.1675 69.0672 33.7207C69.5745 34.2738 70.2334 34.5498 71.0441 34.5498C71.9958 34.5498 72.7365 34.1933 73.2663 33.4826C73.7973 32.7708 74.0628 31.8324 74.0628 30.6663Z" fill="white"/>
<path d="M89.7178 30.5766C89.7178 32.4534 89.1952 33.9369 88.1487 35.0259C87.2135 35.9954 86.0509 36.4795 84.663 36.4795C83.1649 36.4795 82.0888 35.9574 81.4346 34.9132H81.3872V40.7265H78.8604V28.8274C78.8604 27.6475 78.8284 26.4366 78.7667 25.1946H80.9889L81.13 26.9437H81.1774C82.0189 25.6258 83.2977 24.968 85.015 24.968C86.3555 24.968 87.4755 25.4821 88.3738 26.5113C89.2687 27.5417 89.7178 28.8964 89.7178 30.5766ZM87.1436 30.6663C87.1436 29.5922 86.8935 28.7067 86.3934 28.0098C85.847 27.283 85.1158 26.9196 84.1949 26.9196C83.5703 26.9196 83.005 27.122 82.4977 27.521C81.9904 27.9235 81.6598 28.4491 81.5045 29.1C81.4275 29.4036 81.3872 29.652 81.3872 29.8475V31.6875C81.3872 32.4902 81.6408 33.1675 82.1457 33.7207C82.6529 34.2727 83.3119 34.5498 84.125 34.5498C85.0767 34.5498 85.8174 34.1933 86.3472 33.4826C86.8781 32.7708 87.1436 31.8324 87.1436 30.6663Z" fill="white"/>
<path d="M104.343 31.9381C104.343 33.2399 103.877 34.299 102.942 35.1167C101.914 36.0102 100.484 36.4564 98.6456 36.4564C96.9484 36.4564 95.5878 36.139 94.5579 35.5031L95.1433 33.4595C96.2527 34.1104 97.4699 34.437 98.7961 34.437C99.7478 34.437 100.489 34.2277 101.021 33.8114C101.55 33.3951 101.815 32.8362 101.815 32.1393C101.815 31.5183 101.597 30.9951 101.159 30.5707C100.724 30.1464 99.9979 29.7519 98.9833 29.3874C96.2219 28.388 94.8423 26.9241 94.8423 24.999C94.8423 23.7409 95.3259 22.7093 96.2942 21.9066C97.2589 21.1028 98.546 20.7014 100.155 20.7014C101.591 20.7014 102.783 20.9441 103.735 21.4282L103.103 23.4269C102.214 22.9577 101.209 22.7231 100.084 22.7231C99.1955 22.7231 98.501 22.9359 98.0032 23.3591C97.5825 23.7374 97.3715 24.1986 97.3715 24.7448C97.3715 25.3497 97.6121 25.85 98.0956 26.2433C98.5164 26.6067 99.2808 27 100.39 27.4243C101.747 27.9545 102.744 28.5743 103.385 29.285C104.024 29.9934 104.343 30.8801 104.343 31.9381Z" fill="white"/>
<path d="M112.697 27.0342H109.912V32.3921C109.912 33.7548 110.403 34.4356 111.386 34.4356C111.838 34.4356 112.212 34.3977 112.509 34.3218L112.579 36.1836C112.081 36.3642 111.426 36.455 110.614 36.455C109.616 36.455 108.836 36.1595 108.273 35.5695C107.712 34.9784 107.43 33.9871 107.43 32.5945V27.0319H105.771V25.1919H107.43V23.1714L109.912 22.4446V25.1919H112.697V27.0342Z" fill="white"/>
<path d="M125.264 30.621C125.264 32.3173 124.764 33.7099 123.766 34.799C122.719 35.9202 121.33 36.4791 119.599 36.4791C117.93 36.4791 116.601 35.942 115.61 34.8679C114.62 33.7938 114.124 32.438 114.124 30.8038C114.124 29.0938 114.634 27.6931 115.657 26.6041C116.677 25.5139 118.054 24.9688 119.786 24.9688C121.455 24.9688 122.797 25.5058 123.811 26.5811C124.78 27.6241 125.264 28.9708 125.264 30.621ZM122.642 30.7003C122.642 29.6826 122.418 28.8098 121.964 28.0818C121.434 27.2009 120.677 26.7616 119.696 26.7616C118.68 26.7616 117.909 27.2021 117.379 28.0818C116.925 28.8109 116.701 29.6976 116.701 30.7464C116.701 31.7641 116.925 32.6369 117.379 33.3637C117.925 34.2446 118.688 34.6839 119.673 34.6839C120.638 34.6839 121.395 34.2355 121.942 33.3408C122.408 32.599 122.642 31.7169 122.642 30.7003Z" fill="white"/>
<path d="M133.477 27.3508C133.227 27.306 132.96 27.283 132.681 27.283C131.792 27.283 131.104 27.6084 130.621 28.2605C130.2 28.8355 129.989 29.5623 129.989 30.4397V36.23H127.464L127.487 28.6699C127.487 27.398 127.455 26.2399 127.392 25.1957H129.593L129.686 27.3071H129.756C130.022 26.5815 130.443 25.9973 131.019 25.5591C131.582 25.1647 132.19 24.968 132.846 24.968C133.079 24.968 133.29 24.9841 133.477 25.0129V27.3508Z" fill="white"/>
<path d="M144.778 30.1901C144.778 30.6294 144.748 30.9997 144.686 31.3022H137.105C137.135 32.3924 137.501 33.2261 138.205 33.8011C138.844 34.3152 139.67 34.5728 140.684 34.5728C141.807 34.5728 142.831 34.3991 143.752 34.0507L144.148 35.7527C143.071 36.2081 141.801 36.4346 140.335 36.4346C138.571 36.4346 137.187 35.9309 136.18 34.9247C135.174 33.9184 134.671 32.5672 134.671 30.8721C134.671 29.208 135.139 27.8223 136.076 26.7171C137.058 25.5372 138.384 24.9473 140.053 24.9473C141.692 24.9473 142.933 25.5372 143.775 26.7171C144.443 27.6544 144.778 28.8136 144.778 30.1901ZM142.369 29.5542C142.385 28.8274 142.22 28.1995 141.878 27.6693C141.441 26.9874 140.769 26.647 139.864 26.647C139.038 26.647 138.366 26.9793 137.853 27.6463C137.432 28.1765 137.182 28.8124 137.105 29.553H142.369V29.5542Z" fill="white"/>
</svg>
