<svg width="138" height="40" viewBox="0 0 138 40" fill="none" xmlns="http://www.w3.org/2000/svg">
<path d="M137.233 35.3869C137.233 37.5185 135.477 39.2452 133.304 39.2452H4.70159C2.52967 39.2452 0.766724 37.5185 0.766724 35.3869V4.618C0.766724 2.48736 2.52967 0.754639 4.70159 0.754639H133.303C135.477 0.754639 137.232 2.48736 137.232 4.618L137.233 35.3869Z" fill="black"/>
<path d="M132.889 0.801252C135.255 0.801252 137.181 2.685 137.181 5V35C137.181 37.315 135.255 39.1988 132.889 39.1988H5.11111C2.74467 39.1988 0.819055 37.315 0.819055 35V5C0.819055 2.685 2.74467 0.801252 5.11111 0.801252H132.889ZM132.889 2.11397e-06H5.11111C2.30128 2.11397e-06 0 2.25125 0 5V35C0 37.7487 2.30128 40 5.11111 40H132.889C135.699 40 138 37.7487 138 35V5C138 2.25125 135.699 2.11397e-06 132.889 2.11397e-06Z" fill="#A6A6A6"/>
<path d="M30.7974 19.7839C30.7677 16.5609 33.495 14.9929 33.6197 14.9199C32.0752 12.7169 29.6811 12.4159 28.8398 12.3919C26.8291 12.1849 24.8787 13.5689 23.8545 13.5689C22.8097 13.5689 21.2325 12.4119 19.5325 12.4459C17.3449 12.4789 15.2985 13.7179 14.1761 15.6419C11.8597 19.5649 13.5873 25.3299 15.8065 28.5009C16.9166 30.0539 18.2138 31.7879 19.9117 31.7269C21.5729 31.6599 22.1933 30.6909 24.1979 30.6909C26.1841 30.6909 26.7668 31.7269 28.4984 31.6879C30.2812 31.6599 31.4036 30.1279 32.4749 28.5609C33.7577 26.7809 34.2729 25.0279 34.2934 24.9379C34.2515 24.9239 30.8311 23.6469 30.7974 19.7839Z" fill="white"/>
<path d="M27.5263 10.3059C28.4197 9.21292 29.031 7.72592 28.8613 6.21692C27.5682 6.27292 25.951 7.09192 25.0198 8.16092C24.1959 9.10292 23.4599 10.6469 23.65 12.0989C25.1026 12.2049 26.594 11.3819 27.5263 10.3059Z" fill="white"/>
<path d="M50.1404 10.0091C50.1404 11.1861 49.7796 12.0721 49.0589 12.6671C48.3914 13.2161 47.4428 13.4911 46.214 13.4911C45.6048 13.4911 45.0835 13.4651 44.647 13.4131V6.98207C45.2164 6.89207 45.8297 6.84607 46.4921 6.84607C47.6625 6.84607 48.5447 7.09507 49.1396 7.59307C49.8061 8.15607 50.1404 8.96107 50.1404 10.0091ZM49.0108 10.0381C49.0108 9.27507 48.8044 8.69007 48.3914 8.28207C47.9784 7.87507 47.3753 7.67107 46.581 7.67107C46.2437 7.67107 45.9564 7.69307 45.7183 7.73907V12.6281C45.8501 12.6481 46.0914 12.6571 46.442 12.6571C47.2618 12.6571 47.8946 12.4341 48.3403 11.9881C48.786 11.5421 49.0108 10.8921 49.0108 10.0381Z" fill="white"/>
<path d="M56.1295 11.037C56.1295 11.762 55.9179 12.356 55.4947 12.822C55.0511 13.301 54.4633 13.54 53.7293 13.54C53.022 13.54 52.4587 13.311 52.0386 12.851C51.6195 12.392 51.4099 11.813 51.4099 11.115C51.4099 10.385 51.6256 9.78605 52.059 9.32105C52.4924 8.85605 53.0751 8.62305 53.8091 8.62305C54.5164 8.62305 55.0848 8.85205 55.5152 9.31105C55.924 9.75705 56.1295 10.333 56.1295 11.037ZM55.0184 11.071C55.0184 10.636 54.9223 10.263 54.7311 9.95205C54.5062 9.57605 54.1863 9.38805 53.7702 9.38805C53.3399 9.38805 53.0128 9.57605 52.7879 9.95205C52.5957 10.263 52.5006 10.642 52.5006 11.09C52.5006 11.525 52.5967 11.898 52.7879 12.209C53.0199 12.585 53.3429 12.773 53.76 12.773C54.1689 12.773 54.4899 12.582 54.7209 12.199C54.9192 11.882 55.0184 11.506 55.0184 11.071Z" fill="white"/>
<path d="M64.1601 8.71924L62.6523 13.4332H61.671L61.0464 11.3862C60.888 10.8752 60.7592 10.3672 60.659 9.86324H60.6396C60.5466 10.3812 60.4178 10.8882 60.2522 11.3862L59.5887 13.4332H58.5962L57.1783 8.71924H58.2793L58.8241 10.9602C58.956 11.4902 59.0643 11.9952 59.1512 12.4732H59.1707C59.2504 12.0792 59.3823 11.5772 59.5683 10.9702L60.2522 8.72024H61.1251L61.7804 10.9222C61.9388 11.4592 62.0676 11.9762 62.1668 12.4742H62.1964C62.269 11.9892 62.3784 11.4722 62.5235 10.9222L63.1083 8.72024H64.1601V8.71924Z" fill="white"/>
<path d="M69.7138 13.4331H68.6425V10.7331C68.6425 9.90112 68.3195 9.48512 67.6714 9.48512C67.3535 9.48512 67.0969 9.59912 66.8976 9.82812C66.7003 10.0571 66.6001 10.3271 66.6001 10.6361V13.4321H65.5288V10.0661C65.5288 9.65212 65.5155 9.20312 65.49 8.71712H66.4315L66.4815 9.45412H66.5112C66.6359 9.22512 66.8219 9.03612 67.0663 8.88512C67.3566 8.70912 67.6816 8.62012 68.0374 8.62012C68.4871 8.62012 68.8613 8.76212 69.1587 9.04712C69.5288 9.39612 69.7138 9.91712 69.7138 10.6091V13.4331Z" fill="white"/>
<path d="M72.6682 13.4332H71.5979V6.55615H72.6682V13.4332Z" fill="white"/>
<path d="M78.9753 11.037C78.9753 11.762 78.7637 12.356 78.3405 12.822C77.8969 13.301 77.3081 13.54 76.5752 13.54C75.8668 13.54 75.3035 13.311 74.8844 12.851C74.4653 12.392 74.2557 11.813 74.2557 11.115C74.2557 10.385 74.4714 9.78605 74.9049 9.32105C75.3383 8.85605 75.9209 8.62305 76.6539 8.62305C77.3623 8.62305 77.9296 8.85205 78.361 9.31105C78.7699 9.75705 78.9753 10.333 78.9753 11.037ZM77.8632 11.071C77.8632 10.636 77.7671 10.263 77.5759 9.95205C77.352 9.57605 77.0311 9.38805 76.616 9.38805C76.1847 9.38805 75.8576 9.57605 75.6337 9.95205C75.4415 10.263 75.3464 10.642 75.3464 11.09C75.3464 11.525 75.4425 11.898 75.6337 12.209C75.8657 12.585 76.1888 12.773 76.6058 12.773C77.0147 12.773 77.3347 12.582 77.5657 12.199C77.765 11.882 77.8632 11.506 77.8632 11.071Z" fill="white"/>
<path d="M84.1601 13.433H83.1982L83.1185 12.89H83.0888C82.7597 13.323 82.2905 13.54 81.6812 13.54C81.2263 13.54 80.8583 13.397 80.5813 13.113C80.3298 12.855 80.2041 12.534 80.2041 12.153C80.2041 11.577 80.4494 11.138 80.9432 10.834C81.4359 10.53 82.1289 10.381 83.0213 10.388V10.3C83.0213 9.67905 82.6881 9.36905 82.0206 9.36905C81.5453 9.36905 81.1261 9.48605 80.7643 9.71805L80.5465 9.03005C80.9943 8.75905 81.5473 8.62305 82.1995 8.62305C83.4589 8.62305 84.0906 9.27305 84.0906 10.573V12.309C84.0906 12.78 84.1141 13.155 84.1601 13.433ZM83.0479 11.813V11.086C81.8662 11.066 81.2754 11.383 81.2754 12.036C81.2754 12.282 81.3429 12.466 81.4809 12.589C81.6189 12.712 81.7947 12.773 82.0042 12.773C82.2393 12.773 82.4591 12.7 82.6595 12.555C82.8609 12.409 82.9845 12.224 83.0305 11.997C83.0418 11.946 83.0479 11.884 83.0479 11.813Z" fill="white"/>
<path d="M90.2472 13.4332H89.2965L89.2465 12.6762H89.2168C88.9132 13.2522 88.396 13.5402 87.6692 13.5402C87.0885 13.5402 86.605 13.3172 86.2217 12.8712C85.8384 12.4252 85.6472 11.8462 85.6472 11.1352C85.6472 10.3722 85.8547 9.75415 86.2718 9.28215C86.6756 8.84215 87.1703 8.62215 87.7591 8.62215C88.4062 8.62215 88.859 8.83515 89.1166 9.26215H89.1371V6.55615H90.2094V12.1632C90.2094 12.6222 90.2217 13.0452 90.2472 13.4332ZM89.1371 11.4452V10.6592C89.1371 10.5232 89.1269 10.4132 89.1074 10.3292C89.0471 10.0772 88.9173 9.86515 88.72 9.69415C88.5207 9.52315 88.2805 9.43715 88.0034 9.43715C87.6037 9.43715 87.2909 9.59215 87.0609 9.90315C86.833 10.2142 86.7175 10.6112 86.7175 11.0962C86.7175 11.5622 86.8269 11.9402 87.0466 12.2312C87.2787 12.5412 87.5915 12.6962 87.983 12.6962C88.3346 12.6962 88.6157 12.5672 88.8294 12.3082C89.0359 12.0692 89.1371 11.7812 89.1371 11.4452Z" fill="white"/>
<path d="M99.4095 11.037C99.4095 11.762 99.1979 12.356 98.7747 12.822C98.3311 13.301 97.7443 13.54 97.0094 13.54C96.303 13.54 95.7398 13.311 95.3186 12.851C94.8995 12.392 94.6899 11.813 94.6899 11.115C94.6899 10.385 94.9056 9.78605 95.3391 9.32105C95.7725 8.85605 96.3551 8.62305 97.0901 8.62305C97.7965 8.62305 98.3659 8.85205 98.7952 9.31105C99.2041 9.75705 99.4095 10.333 99.4095 11.037ZM98.2994 11.071C98.2994 10.636 98.2033 10.263 98.0122 9.95205C97.7862 9.57605 97.4673 9.38805 97.0503 9.38805C96.6209 9.38805 96.2938 9.57605 96.0679 9.95205C95.8757 10.263 95.7807 10.642 95.7807 11.09C95.7807 11.525 95.8767 11.898 96.0679 12.209C96.2999 12.585 96.623 12.773 97.04 12.773C97.4489 12.773 97.7709 12.582 98.0019 12.199C98.1992 11.882 98.2994 11.506 98.2994 11.071Z" fill="white"/>
<path d="M105.17 13.4331H104.099V10.7331C104.099 9.90112 103.776 9.48512 103.127 9.48512C102.809 9.48512 102.553 9.59912 102.354 9.82812C102.156 10.0571 102.057 10.3271 102.057 10.6361V13.4321H100.985V10.0661C100.985 9.65212 100.972 9.20312 100.947 8.71712H101.887L101.937 9.45412H101.967C102.093 9.22512 102.279 9.03612 102.522 8.88512C102.813 8.70912 103.137 8.62012 103.494 8.62012C103.943 8.62012 104.317 8.76212 104.615 9.04712C104.986 9.39612 105.17 9.91712 105.17 10.6091V13.4331Z" fill="white"/>
<path d="M112.379 9.50417H111.2V11.7942C111.2 12.3762 111.409 12.6672 111.824 12.6672C112.016 12.6672 112.176 12.6512 112.302 12.6182L112.329 13.4132C112.118 13.4912 111.84 13.5302 111.497 13.5302C111.074 13.5302 110.745 13.4042 110.507 13.1522C110.267 12.9002 110.149 12.4762 110.149 11.8812V9.50417H109.445V8.71917H110.149V7.85517L111.199 7.54517V8.71817H112.378V9.50417H112.379Z" fill="white"/>
<path d="M118.051 13.4332H116.978V10.7532C116.978 9.90815 116.655 9.48515 116.008 9.48515C115.511 9.48515 115.172 9.73015 114.986 10.2202C114.954 10.3232 114.936 10.4492 114.936 10.5972V13.4322H113.866V6.55615H114.936V9.39715H114.956C115.294 8.88015 115.777 8.62215 116.404 8.62215C116.847 8.62215 117.214 8.76415 117.506 9.04915C117.869 9.40415 118.051 9.93215 118.051 10.6302V13.4332Z" fill="white"/>
<path d="M123.901 10.853C123.901 11.041 123.887 11.199 123.861 11.328H120.648C120.662 11.794 120.816 12.149 121.113 12.395C121.385 12.615 121.736 12.725 122.165 12.725C122.64 12.725 123.074 12.651 123.464 12.502L123.632 13.23C123.175 13.424 122.637 13.521 122.015 13.521C121.269 13.521 120.681 13.306 120.256 12.876C119.828 12.446 119.617 11.869 119.617 11.145C119.617 10.434 119.814 9.84201 120.212 9.37001C120.627 8.86601 121.188 8.61401 121.896 8.61401C122.589 8.61401 123.116 8.86601 123.471 9.37001C123.759 9.77001 123.901 10.265 123.901 10.853ZM122.879 10.582C122.887 10.271 122.816 10.003 122.671 9.77701C122.485 9.48601 122.202 9.34001 121.819 9.34001C121.469 9.34001 121.184 9.48201 120.966 9.76701C120.788 9.99401 120.683 10.265 120.648 10.582H122.879Z" fill="white"/>
<path d="M54.8374 31.5042H52.516L51.2443 27.5952H46.8242L45.6129 31.5042H43.3528L47.732 18.1962H50.4368L54.8374 31.5042ZM50.861 25.9552L49.711 22.4802C49.5894 22.1252 49.3614 21.2892 49.0251 19.9732H48.9842C48.8503 20.5392 48.6346 21.3752 48.3382 22.4802L47.2086 25.9552H50.861Z" fill="white"/>
<path d="M66.0993 26.5884C66.0993 28.2204 65.6485 29.5104 64.7469 30.4574C63.9394 31.3004 62.9366 31.7214 61.7395 31.7214C60.4474 31.7214 59.5193 31.2674 58.954 30.3594H58.9131V35.4144H56.7337V25.0674C56.7337 24.0414 56.7061 22.9884 56.653 21.9084H58.5696L58.6913 23.4294H58.7322C59.459 22.2834 60.5619 21.7114 62.0421 21.7114C63.1993 21.7114 64.1653 22.1584 64.9381 23.0534C65.7129 23.9494 66.0993 25.1274 66.0993 26.5884ZM63.879 26.6664C63.879 25.7324 63.6644 24.9624 63.233 24.3564C62.7618 23.7244 62.129 23.4084 61.3358 23.4084C60.7981 23.4084 60.3094 23.5844 59.873 23.9314C59.4354 24.2814 59.1492 24.7384 59.0153 25.3044C58.9478 25.5684 58.9141 25.7844 58.9141 25.9544V27.5544C58.9141 28.2524 59.1329 28.8414 59.5704 29.3224C60.0079 29.8034 60.5762 30.0434 61.2754 30.0434C62.0963 30.0434 62.7352 29.7334 63.1921 29.1154C63.6501 28.4964 63.879 27.6804 63.879 26.6664Z" fill="white"/>
<path d="M77.3816 26.5884C77.3816 28.2204 76.9308 29.5104 76.0282 30.4574C75.2217 31.3004 74.2189 31.7214 73.0218 31.7214C71.7297 31.7214 70.8016 31.2674 70.2373 30.3594H70.1964V35.4144H68.017V25.0674C68.017 24.0414 67.9894 22.9884 67.9363 21.9084H69.8529L69.9746 23.4294H70.0155C70.7413 22.2834 71.8442 21.7114 73.3254 21.7114C74.4816 21.7114 75.4476 22.1584 76.2224 23.0534C76.9942 23.9494 77.3816 25.1274 77.3816 26.5884ZM75.1613 26.6664C75.1613 25.7324 74.9457 24.9624 74.5143 24.3564C74.043 23.7244 73.4123 23.4084 72.6181 23.4084C72.0793 23.4084 71.5917 23.5844 71.1542 23.9314C70.7167 24.2814 70.4315 24.7384 70.2976 25.3044C70.2312 25.5684 70.1964 25.7844 70.1964 25.9544V27.5544C70.1964 28.2524 70.4152 28.8414 70.8506 29.3224C71.2881 29.8024 71.8565 30.0434 72.5578 30.0434C73.3786 30.0434 74.0175 29.7334 74.4744 29.1154C74.9324 28.4964 75.1613 27.6804 75.1613 26.6664Z" fill="white"/>
<path d="M89.9956 27.7722C89.9956 28.9042 89.5939 29.8252 88.7874 30.5362C87.9011 31.3132 86.6673 31.7012 85.0818 31.7012C83.618 31.7012 82.4445 31.4252 81.5562 30.8722L82.0611 29.0952C83.0179 29.6612 84.0678 29.9452 85.2116 29.9452C86.0325 29.9452 86.6714 29.7632 87.1303 29.4012C87.5873 29.0392 87.8152 28.5532 87.8152 27.9472C87.8152 27.4072 87.6271 26.9522 87.2499 26.5832C86.8748 26.2142 86.2482 25.8712 85.3731 25.5542C82.9914 24.6852 81.8015 23.4122 81.8015 21.7382C81.8015 20.6442 82.2186 19.7472 83.0537 19.0492C83.8858 18.3502 84.9959 18.0012 86.3841 18.0012C87.622 18.0012 88.6504 18.2122 89.4712 18.6332L88.9264 20.3712C88.1597 19.9632 87.2929 19.7592 86.3228 19.7592C85.5561 19.7592 84.9571 19.9442 84.5278 20.3122C84.1649 20.6412 83.9829 21.0422 83.9829 21.5172C83.9829 22.0432 84.1904 22.4782 84.6075 22.8202C84.9704 23.1362 85.6297 23.4782 86.5865 23.8472C87.757 24.3082 88.6166 24.8472 89.1697 25.4652C89.7206 26.0812 89.9956 26.8522 89.9956 27.7722Z" fill="white"/>
<path d="M97.2013 23.5082H94.7991V28.1672C94.7991 29.3522 95.2223 29.9442 96.0707 29.9442C96.4602 29.9442 96.7832 29.9112 97.0387 29.8452L97.0991 31.4642C96.6697 31.6212 96.1044 31.7002 95.4042 31.7002C94.5435 31.7002 93.8709 31.4432 93.3853 30.9302C92.9018 30.4162 92.6585 29.5542 92.6585 28.3432V23.5062H91.2274V21.9062H92.6585V20.1492L94.7991 19.5172V21.9062H97.2013V23.5082Z" fill="white"/>
<path d="M108.04 26.6272C108.04 28.1022 107.609 29.3132 106.748 30.2602C105.845 31.2352 104.647 31.7212 103.154 31.7212C101.714 31.7212 100.569 31.2542 99.714 30.3202C98.8594 29.3862 98.4321 28.2072 98.4321 26.7862C98.4321 25.2992 98.8717 24.0812 99.7539 23.1342C100.634 22.1862 101.822 21.7122 103.315 21.7122C104.755 21.7122 105.913 22.1792 106.787 23.1142C107.623 24.0212 108.04 25.1922 108.04 26.6272ZM105.779 26.6962C105.779 25.8112 105.586 25.0522 105.194 24.4192C104.737 23.6532 104.084 23.2712 103.238 23.2712C102.362 23.2712 101.696 23.6542 101.239 24.4192C100.848 25.0532 100.654 25.8242 100.654 26.7362C100.654 27.6212 100.848 28.3802 101.239 29.0122C101.71 29.7782 102.369 30.1602 103.218 30.1602C104.05 30.1602 104.703 29.7702 105.175 28.9922C105.576 28.3472 105.779 27.5802 105.779 26.6962Z" fill="white"/>
<path d="M115.124 23.7834C114.908 23.7444 114.678 23.7244 114.437 23.7244C113.67 23.7244 113.078 24.0074 112.661 24.5744C112.298 25.0744 112.116 25.7064 112.116 26.4694V31.5044H109.937L109.958 24.9304C109.958 23.8244 109.93 22.8174 109.876 21.9094H111.774L111.854 23.7454H111.914C112.144 23.1144 112.507 22.6064 113.004 22.2254C113.49 21.8824 114.014 21.7114 114.579 21.7114C114.781 21.7114 114.963 21.7254 115.124 21.7504V23.7834Z" fill="white"/>
<path d="M124.871 26.2524C124.871 26.6344 124.845 26.9564 124.791 27.2194H118.253C118.279 28.1674 118.595 28.8924 119.202 29.3924C119.753 29.8394 120.465 30.0634 121.34 30.0634C122.308 30.0634 123.191 29.9124 123.986 29.6094L124.327 31.0894C123.399 31.4854 122.303 31.6824 121.039 31.6824C119.518 31.6824 118.324 31.2444 117.455 30.3694C116.588 29.4944 116.153 28.3194 116.153 26.8454C116.153 25.3984 116.557 24.1934 117.366 23.2324C118.212 22.2064 119.356 21.6934 120.795 21.6934C122.209 21.6934 123.279 22.2064 124.006 23.2324C124.582 24.0474 124.871 25.0554 124.871 26.2524ZM122.793 25.6994C122.807 25.0674 122.665 24.5214 122.37 24.0604C121.992 23.4674 121.413 23.1714 120.633 23.1714C119.92 23.1714 119.341 23.4604 118.898 24.0404C118.535 24.5014 118.32 25.0544 118.253 25.6984H122.793V25.6994Z" fill="white"/>
</svg>
