<svg width="160" height="46" viewBox="0 0 160 46" fill="none" xmlns="http://www.w3.org/2000/svg">
<path d="M154.074 46H5.92593C2.66815 46 0 43.4111 0 40.25V5.75C0 2.58894 2.66815 9.53674e-07 5.92593 9.53674e-07H154.074C157.332 9.53674e-07 160 2.58894 160 5.75V40.25C160 43.4111 157.332 46 154.074 46Z" fill="black"/>
<path d="M154.074 0.921437C156.818 0.921437 159.05 3.08775 159.05 5.75V40.25C159.05 42.9123 156.818 45.0786 154.074 45.0786H5.92593C3.18222 45.0786 0.949629 42.9123 0.949629 40.25V5.75C0.949629 3.08775 3.18222 0.921437 5.92593 0.921437H154.074ZM154.074 9.53674e-07H5.92593C2.66815 9.53674e-07 0 2.58894 0 5.75V40.25C0 43.4111 2.66815 46 5.92593 46H154.074C157.332 46 160 43.4111 160 40.25V5.75C160 2.58894 157.332 9.53674e-07 154.074 9.53674e-07Z" fill="#A6A6A6"/>
<path d="M12.3674 8.66932C12.0192 9.02295 11.8177 9.57351 11.8177 10.2865V35.7188C11.8177 36.4318 12.0192 36.9823 12.3674 37.3359L12.4533 37.4136L27.1407 23.1679V22.8316L12.4533 8.58595L12.3674 8.66932Z" fill="url(#paint0_linear_2072_121949)"/>
<path d="M32.0311 27.9189L27.1407 23.168V22.8316L32.037 18.0807L32.1467 18.1425L37.9452 21.3438C39.6 22.2523 39.6 23.7473 37.9452 24.6616L32.1467 27.8571L32.0311 27.9189V27.9189Z" fill="url(#paint1_linear_2072_121949)"/>
<path d="M32.1464 27.8571L27.1405 22.9998L12.3672 37.336C12.9168 37.8966 13.8131 37.9642 14.8324 37.4035L32.1464 27.8571" fill="url(#paint2_linear_2072_121949)"/>
<path d="M32.1464 18.1424L14.8324 8.59601C13.8131 8.04113 12.9168 8.10869 12.3672 8.66932L27.1405 22.9998L32.1464 18.1424Z" fill="url(#paint3_linear_2072_121949)"/>
<path d="M56.1988 11.7806C56.1988 12.7408 55.9025 13.5099 55.3188 14.0835C54.6477 14.7634 53.7736 15.1055 52.7025 15.1055C51.6788 15.1055 50.8047 14.7576 50.0877 14.072C49.3691 13.3762 49.0106 12.5223 49.0106 11.5003C49.0106 10.4782 49.3691 9.62433 50.0877 8.93433C50.8047 8.2429 51.6788 7.89502 52.7025 7.89502C53.2121 7.89502 53.698 7.99708 54.1617 8.18683C54.6239 8.37802 55.0002 8.63677 55.2728 8.95589L54.6536 9.56252C54.178 9.01771 53.5306 8.7489 52.7025 8.7489C51.9558 8.7489 51.3084 9.00189 50.7588 9.51221C50.2151 10.024 49.9425 10.6866 49.9425 11.5003C49.9425 12.3139 50.2151 12.9823 50.7588 13.4941C51.3084 13.9986 51.9558 14.2574 52.7025 14.2574C53.4951 14.2574 54.1617 13.9986 54.6877 13.4883C55.0343 13.1505 55.2314 12.6848 55.2832 12.0896H52.7025V11.2588H56.1454C56.1869 11.4385 56.1988 11.6124 56.1988 11.7806V11.7806Z" fill="white" stroke="white" stroke-width="0.143253" stroke-miterlimit="10"/>
<path d="M61.6611 8.89967H58.427V11.0847H61.3426V11.9155H58.427V14.1005H61.6611V14.9472H57.5115V8.05298H61.6611V8.89967Z" fill="white" stroke="white" stroke-width="0.143253" stroke-miterlimit="10"/>
<path d="M65.5158 14.9472H64.6003V8.89967H62.6166V8.05298H67.501V8.89967H65.5158V14.9472V14.9472Z" fill="white" stroke="white" stroke-width="0.143253" stroke-miterlimit="10"/>
<path d="M71.0358 14.9472V8.05298H71.9498V14.9472H71.0358Z" fill="white" stroke="white" stroke-width="0.143253" stroke-miterlimit="10"/>
<path d="M76.0019 14.9472H75.0938V8.89967H73.1027V8.05298H77.993V8.89967H76.0019V14.9472Z" fill="white" stroke="white" stroke-width="0.143253" stroke-miterlimit="10"/>
<path d="M87.2403 14.0605C86.5395 14.7576 85.6714 15.1055 84.6358 15.1055C83.5943 15.1055 82.7262 14.7576 82.0254 14.0605C81.3262 13.3647 80.978 12.5108 80.978 11.5003C80.978 10.4897 81.3262 9.63583 82.0254 8.94008C82.7262 8.24289 83.5943 7.89502 84.6358 7.89502C85.6654 7.89502 86.5336 8.24289 87.2343 8.94583C87.9395 9.64733 88.2877 10.4955 88.2877 11.5003C88.2877 12.5108 87.9395 13.3647 87.2403 14.0605ZM82.7025 13.4826C83.2299 13.9986 83.8714 14.2574 84.6358 14.2574C85.3943 14.2574 86.0417 13.9986 86.5632 13.4826C87.0891 12.9665 87.3558 12.3038 87.3558 11.5003C87.3558 10.6967 87.0891 10.034 86.5632 9.51796C86.0417 9.0019 85.3943 8.74314 84.6358 8.74314C83.8714 8.74314 83.2299 9.0019 82.7025 9.51796C82.1765 10.034 81.9099 10.6967 81.9099 11.5003C81.9099 12.3038 82.1765 12.9665 82.7025 13.4826V13.4826Z" fill="white" stroke="white" stroke-width="0.143253" stroke-miterlimit="10"/>
<path d="M89.5723 14.9472V8.05298H90.6834L94.1382 13.4149H94.1782L94.1382 12.0895V8.05298H95.0523V14.9472H94.0982L90.4804 9.32085H90.4404L90.4804 10.652V14.9472H89.5723V14.9472Z" fill="white" stroke="white" stroke-width="0.143253" stroke-miterlimit="10"/>
<path d="M80.7528 25.0152C77.9691 25.0152 75.6951 27.0708 75.6951 29.907C75.6951 32.7202 77.9691 34.7974 80.7528 34.7974C83.5425 34.7974 85.8165 32.7202 85.8165 29.907C85.8165 27.0708 83.5425 25.0152 80.7528 25.0152ZM80.7528 32.8712C79.2254 32.8712 77.9114 31.6478 77.9114 29.907C77.9114 28.1432 79.2254 26.9415 80.7528 26.9415C82.2802 26.9415 83.6002 28.1432 83.6002 29.907C83.6002 31.6478 82.2802 32.8712 80.7528 32.8712V32.8712ZM69.7173 25.0152C66.9277 25.0152 64.6595 27.0708 64.6595 29.907C64.6595 32.7202 66.9277 34.7974 69.7173 34.7974C72.5054 34.7974 74.7751 32.7202 74.7751 29.907C74.7751 27.0708 72.5054 25.0152 69.7173 25.0152ZM69.7173 32.8712C68.1884 32.8712 66.8699 31.6478 66.8699 29.907C66.8699 28.1432 68.1884 26.9415 69.7173 26.9415C71.2447 26.9415 72.5588 28.1432 72.5588 29.907C72.5588 31.6478 71.2447 32.8712 69.7173 32.8712ZM56.5854 26.5145V28.5932H61.701C61.5514 29.7547 61.1514 30.6085 60.538 31.2037C59.7914 31.9224 58.6284 32.7202 56.5854 32.7202C53.4373 32.7202 50.9721 30.2549 50.9721 27.2002C50.9721 24.1455 53.4373 21.6802 56.5854 21.6802C58.2877 21.6802 59.5262 22.3257 60.4403 23.1623L61.9499 21.6975C60.6714 20.513 58.9706 19.603 56.5854 19.603C52.2684 19.603 48.6403 23.0113 48.6403 27.2002C48.6403 31.3891 52.2684 34.7974 56.5854 34.7974C58.9188 34.7974 60.6714 34.0557 62.0491 32.6642C63.461 31.2942 63.901 29.368 63.901 27.8126C63.901 27.3296 63.8595 26.8854 63.7854 26.5145H56.5854ZM110.283 28.126C109.867 27.032 108.582 25.0152 105.966 25.0152C103.374 25.0152 101.215 26.9975 101.215 29.907C101.215 32.6469 103.351 34.7974 106.215 34.7974C108.531 34.7974 109.867 33.4275 110.417 32.6297L108.698 31.5185C108.125 32.3321 107.344 32.8712 106.215 32.8712C105.094 32.8712 104.289 32.3723 103.774 31.3891L110.516 28.6823L110.283 28.126V28.126ZM103.409 29.7547C103.351 27.8687 104.919 26.9027 106.042 26.9027C106.922 26.9027 107.668 27.3296 107.917 27.9405L103.409 29.7547V29.7547ZM97.9291 34.4998H100.145V20.1248H97.9291V34.4998ZM94.2995 26.1048H94.2254C93.7276 25.5327 92.778 25.0152 91.5751 25.0152C89.0506 25.0152 86.7425 27.1657 86.7425 29.9228C86.7425 32.6642 89.0506 34.7974 91.5751 34.7974C92.778 34.7974 93.7276 34.2756 94.2254 33.6862H94.2995V34.3877C94.2995 36.2579 93.2699 37.2627 91.6091 37.2627C90.2551 37.2627 89.4151 36.314 89.0684 35.5162L87.141 36.2967C87.6965 37.5933 89.1677 39.189 91.6091 39.189C94.2076 39.189 96.4002 37.7055 96.4002 34.0959V25.3128H94.2995V26.1048V26.1048ZM91.7647 32.8712C90.2373 32.8712 88.9588 31.6306 88.9588 29.9228C88.9588 28.1993 90.2373 26.9415 91.7647 26.9415C93.2699 26.9415 94.4565 28.1993 94.4565 29.9228C94.4565 31.6306 93.2699 32.8712 91.7647 32.8712V32.8712ZM120.659 20.1248H115.359V34.4998H117.569V29.0532H120.659C123.114 29.0532 125.522 27.3296 125.522 24.5883C125.522 21.8484 123.108 20.1248 120.659 20.1248V20.1248ZM120.717 27.0536H117.569V22.1244H120.717C122.368 22.1244 123.31 23.4541 123.31 24.5883C123.31 25.7009 122.368 27.0536 120.717 27.0536ZM134.381 24.9879C132.784 24.9879 131.123 25.6722 130.44 27.1887L132.402 27.9865C132.824 27.1887 133.6 26.93 134.421 26.93C135.568 26.93 136.731 27.5984 136.748 28.7786V28.9295C136.348 28.7053 135.492 28.3732 134.439 28.3732C132.326 28.3732 130.174 29.5017 130.174 31.6076C130.174 33.5338 131.904 34.7744 133.849 34.7744C135.337 34.7744 136.157 34.1232 136.673 33.3657H136.748V34.4768H138.883V28.9626C138.883 26.4139 136.922 24.9879 134.381 24.9879ZM134.114 32.8654C133.391 32.8654 132.384 32.5175 132.384 31.6478C132.384 30.5352 133.64 30.1083 134.728 30.1083C135.701 30.1083 136.157 30.3167 136.748 30.5913C136.575 31.9224 135.394 32.8654 134.114 32.8654V32.8654ZM146.661 25.3027L144.12 31.5343H144.045L141.418 25.3027H139.034L142.981 34.0111L140.729 38.8569H143.039L149.12 25.3027H146.661V25.3027ZM126.737 34.4998H128.953V20.1248H126.737V34.4998Z" fill="white"/>
<defs>
<linearGradient id="paint0_linear_2072_121949" x1="25.8366" y1="35.9836" x2="6.54565" y2="16.1024" gradientUnits="userSpaceOnUse">
<stop stop-color="#00A0FF"/>
<stop offset="0.0066" stop-color="#00A1FF"/>
<stop offset="0.2601" stop-color="#00BEFF"/>
<stop offset="0.5122" stop-color="#00D2FF"/>
<stop offset="0.7604" stop-color="#00DFFF"/>
<stop offset="1" stop-color="#00E3FF"/>
</linearGradient>
<linearGradient id="paint1_linear_2072_121949" x1="40.1" y1="22.9982" x2="11.4222" y2="22.9982" gradientUnits="userSpaceOnUse">
<stop stop-color="#FFE000"/>
<stop offset="0.4087" stop-color="#FFBD00"/>
<stop offset="0.7754" stop-color="#FFA500"/>
<stop offset="1" stop-color="#FF9C00"/>
</linearGradient>
<linearGradient id="paint2_linear_2072_121949" x1="29.4244" y1="20.3593" x2="3.26421" y2="-6.60128" gradientUnits="userSpaceOnUse">
<stop stop-color="#FF3A44"/>
<stop offset="1" stop-color="#C31162"/>
</linearGradient>
<linearGradient id="paint3_linear_2072_121949" x1="8.64843" y1="45.7971" x2="20.3301" y2="33.7581" gradientUnits="userSpaceOnUse">
<stop stop-color="#32A071"/>
<stop offset="0.0685" stop-color="#2DA771"/>
<stop offset="0.4762" stop-color="#15CF74"/>
<stop offset="0.8009" stop-color="#06E775"/>
<stop offset="1" stop-color="#00F076"/>
</linearGradient>
</defs>
</svg>
