<svg width="138" height="40" viewBox="0 0 138 40" fill="none" xmlns="http://www.w3.org/2000/svg">
<path d="M132.889 40H5.11111C2.30128 40 0 37.7487 0 35V5C0 2.25125 2.30128 -2.61019e-06 5.11111 -2.61019e-06H132.889C135.699 -2.61019e-06 138 2.25125 138 5V35C138 37.7487 135.699 40 132.889 40Z" fill="black"/>
<path d="M132.889 0.801247C135.255 0.801247 137.181 2.685 137.181 5V35C137.181 37.315 135.255 39.1988 132.889 39.1988H5.11111C2.74467 39.1988 0.819055 37.315 0.819055 35V5C0.819055 2.685 2.74467 0.801247 5.11111 0.801247H132.889ZM132.889 -2.61019e-06H5.11111C2.30128 -2.61019e-06 0 2.25125 0 5V35C0 37.7487 2.30128 40 5.11111 40H132.889C135.699 40 138 37.7487 138 35V5C138 2.25125 135.699 -2.61019e-06 132.889 -2.61019e-06Z" fill="#A6A6A6"/>
<path d="M10.6668 7.53869C10.3665 7.84619 10.1927 8.32494 10.1927 8.94494V31.0599C10.1927 31.6799 10.3665 32.1587 10.6668 32.4662L10.7409 32.5337L23.4088 20.1462V19.8537L10.7409 7.46619L10.6668 7.53869Z" fill="url(#paint0_linear_321_65754)"/>
<path d="M27.6268 24.2772L23.4088 20.146V19.8535L27.6319 15.7222L27.7264 15.776L32.7276 18.5597C34.1549 19.3497 34.1549 20.6497 32.7276 21.4447L27.7264 24.2235L27.6268 24.2772Z" fill="url(#paint1_linear_321_65754)"/>
<path d="M27.7262 24.2235L23.4086 19.9997L10.6666 32.466C11.1407 32.9535 11.9137 33.0122 12.7928 32.5247L27.7262 24.2235Z" fill="url(#paint2_linear_321_65754)"/>
<path d="M27.7262 15.7761L12.7928 7.47488C11.9137 6.99238 11.1407 7.05113 10.6666 7.53863L23.4086 19.9999L27.7262 15.7761Z" fill="url(#paint3_linear_321_65754)"/>
<path d="M48.4714 10.244C48.4714 11.079 48.2158 11.7477 47.7124 12.2465C47.1336 12.8377 46.3797 13.1352 45.4558 13.1352C44.5729 13.1352 43.819 12.8327 43.2005 12.2365C42.5808 11.6315 42.2716 10.889 42.2716 10.0002C42.2716 9.11148 42.5808 8.36898 43.2005 7.76898C43.819 7.16773 44.5729 6.86523 45.4558 6.86523C45.8954 6.86523 46.3145 6.95398 46.7144 7.11898C47.1131 7.28523 47.4377 7.51023 47.6728 7.78773L47.1387 8.31523C46.7285 7.84149 46.1701 7.60774 45.4558 7.60774C44.8118 7.60774 44.2534 7.82773 43.7794 8.27148C43.3104 8.71648 43.0753 9.29273 43.0753 10.0002C43.0753 10.7077 43.3104 11.289 43.7794 11.734C44.2534 12.1727 44.8118 12.3977 45.4558 12.3977C46.1394 12.3977 46.7144 12.1727 47.1681 11.729C47.4671 11.4352 47.637 11.0302 47.6817 10.5127H45.4558V9.79023H48.4254C48.4612 9.94648 48.4714 10.0977 48.4714 10.244Z" fill="white" stroke="white" stroke-width="0.123556" stroke-miterlimit="10"/>
<path d="M53.1827 7.73894H50.3933V9.63894H52.908V10.3614H50.3933V12.2614H53.1827V12.9977H49.6036V7.00269H53.1827V7.73894Z" fill="white" stroke="white" stroke-width="0.123556" stroke-miterlimit="10"/>
<path d="M56.5073 12.9977H55.7177V7.73894H54.0067V7.00269H58.2195V7.73894H56.5073V12.9977Z" fill="white" stroke="white" stroke-width="0.123556" stroke-miterlimit="10"/>
<path d="M61.2683 12.9977V7.00269H62.0567V12.9977H61.2683Z" fill="white" stroke="white" stroke-width="0.123556" stroke-miterlimit="10"/>
<path d="M65.5516 12.9977H64.7684V7.73894H63.051V7.00269H67.269V7.73894H65.5516V12.9977Z" fill="white" stroke="white" stroke-width="0.123556" stroke-miterlimit="10"/>
<path d="M75.2447 12.2265C74.6403 12.8327 73.8915 13.1352 72.9983 13.1352C72.1001 13.1352 71.3513 12.8327 70.7469 12.2265C70.1438 11.6215 69.8435 10.879 69.8435 10.0002C69.8435 9.12148 70.1438 8.37898 70.7469 7.77398C71.3513 7.16773 72.1001 6.86523 72.9983 6.86523C73.8864 6.86523 74.6352 7.16773 75.2396 7.77898C75.8478 8.38898 76.1481 9.12648 76.1481 10.0002C76.1481 10.879 75.8478 11.6215 75.2447 12.2265ZM71.3308 11.724C71.7857 12.1727 72.339 12.3977 72.9983 12.3977C73.6526 12.3977 74.211 12.1727 74.6607 11.724C75.1143 11.2752 75.3443 10.699 75.3443 10.0002C75.3443 9.30148 75.1143 8.72523 74.6607 8.27648C74.211 7.82773 73.6526 7.60273 72.9983 7.60273C72.339 7.60273 71.7857 7.82773 71.3308 8.27648C70.8772 8.72523 70.6472 9.30148 70.6472 10.0002C70.6472 10.699 70.8772 11.2752 71.3308 11.724Z" fill="white" stroke="white" stroke-width="0.123556" stroke-miterlimit="10"/>
<path d="M77.256 12.9977V7.00269H78.2143L81.1941 11.6652H81.2286L81.1941 10.5127V7.00269H81.9825V12.9977H81.1596L78.0393 8.10519H78.0048L78.0393 9.26268V12.9977H77.256Z" fill="white" stroke="white" stroke-width="0.123556" stroke-miterlimit="10"/>
<path d="M69.6492 21.7523C67.2483 21.7523 65.2869 23.5398 65.2869 26.006C65.2869 28.4523 67.2483 30.2585 69.6492 30.2585C72.0553 30.2585 74.0167 28.4523 74.0167 26.006C74.0167 23.5398 72.0553 21.7523 69.6492 21.7523ZM69.6492 28.5835C68.3319 28.5835 67.1985 27.5198 67.1985 26.006C67.1985 24.4723 68.3319 23.4273 69.6492 23.4273C70.9666 23.4273 72.1051 24.4723 72.1051 26.006C72.1051 27.5198 70.9666 28.5835 69.6492 28.5835ZM60.1311 21.7523C57.725 21.7523 55.7688 23.5398 55.7688 26.006C55.7688 28.4523 57.725 30.2585 60.1311 30.2585C62.5359 30.2585 64.4934 28.4523 64.4934 26.006C64.4934 23.5398 62.5359 21.7523 60.1311 21.7523ZM60.1311 28.5835C58.8124 28.5835 57.6752 27.5198 57.6752 26.006C57.6752 24.4723 58.8124 23.4273 60.1311 23.4273C61.4485 23.4273 62.5819 24.4723 62.5819 26.006C62.5819 27.5198 61.4485 28.5835 60.1311 28.5835ZM48.8049 23.056V24.8635H53.217C53.088 25.8735 52.743 26.616 52.214 27.1335C51.57 27.7585 50.5669 28.4523 48.8049 28.4523C46.0896 28.4523 43.9634 26.3085 43.9634 23.6523C43.9634 20.996 46.0896 18.8523 48.8049 18.8523C50.273 18.8523 51.3413 19.4135 52.1296 20.141L53.4317 18.8673C52.329 17.8373 50.8621 17.046 48.8049 17.046C45.0814 17.046 41.9521 20.0098 41.9521 23.6523C41.9521 27.2948 45.0814 30.2585 48.8049 30.2585C50.8174 30.2585 52.329 29.6135 53.5173 28.4035C54.735 27.2123 55.1145 25.5373 55.1145 24.1848C55.1145 23.7648 55.0788 23.3785 55.0149 23.056H48.8049ZM95.1192 24.4573C94.7601 23.506 93.6523 21.7523 91.3957 21.7523C89.1596 21.7523 87.2979 23.476 87.2979 26.006C87.2979 28.3885 89.1405 30.2585 91.6104 30.2585C93.6076 30.2585 94.7601 29.0673 95.2342 28.3735L93.752 27.4073C93.2575 28.1148 92.5841 28.5835 91.6104 28.5835C90.6431 28.5835 89.9493 28.1498 89.5046 27.2948L95.3198 24.941L95.1192 24.4573ZM89.1903 25.8735C89.1405 24.2335 90.4924 23.3935 91.4609 23.3935C92.2199 23.3935 92.8639 23.7648 93.0786 24.296L89.1903 25.8735ZM84.4638 29.9998H86.3754V17.4998H84.4638V29.9998ZM81.3332 22.6998H81.2694C80.84 22.2023 80.021 21.7523 78.9834 21.7523C76.8061 21.7523 74.8153 23.6223 74.8153 26.0198C74.8153 28.4035 76.8061 30.2585 78.9834 30.2585C80.021 30.2585 80.84 29.8048 81.2694 29.2923H81.3332V29.9023C81.3332 31.5285 80.4452 32.4023 79.0128 32.4023C77.8449 32.4023 77.1204 31.5773 76.8214 30.8835L75.159 31.5623C75.6382 32.6898 76.907 34.0773 79.0128 34.0773C81.254 34.0773 83.1451 32.7873 83.1451 29.6485V22.011H81.3332V22.6998ZM79.147 28.5835C77.8296 28.5835 76.7269 27.5048 76.7269 26.0198C76.7269 24.521 77.8296 23.4273 79.147 23.4273C80.4452 23.4273 81.4687 24.521 81.4687 26.0198C81.4687 27.5048 80.4452 28.5835 79.147 28.5835ZM104.069 17.4998H99.4968V29.9998H101.403V25.2635H104.069C106.186 25.2635 108.262 23.7648 108.262 21.381C108.262 18.9985 106.181 17.4998 104.069 17.4998ZM104.119 23.5248H101.403V19.2385H104.119C105.542 19.2385 106.355 20.3948 106.355 21.381C106.355 22.3485 105.542 23.5248 104.119 23.5248ZM115.904 21.7285C114.526 21.7285 113.094 22.3235 112.505 23.6423L114.196 24.336C114.561 23.6423 115.23 23.4173 115.938 23.4173C116.927 23.4173 117.93 23.9985 117.945 25.0248V25.156C117.6 24.961 116.862 24.6723 115.953 24.6723C114.131 24.6723 112.275 25.6535 112.275 27.4848C112.275 29.1598 113.767 30.2385 115.445 30.2385C116.728 30.2385 117.436 29.6723 117.88 29.0135H117.945V29.9798H119.787V25.1848C119.787 22.9685 118.095 21.7285 115.904 21.7285ZM115.674 28.5785C115.05 28.5785 114.181 28.276 114.181 27.5198C114.181 26.5523 115.265 26.181 116.203 26.181C117.042 26.181 117.436 26.3623 117.945 26.601C117.796 27.7585 116.778 28.5785 115.674 28.5785ZM126.495 22.0023L124.304 27.421H124.238L121.973 22.0023H119.917L123.321 29.5748L121.379 33.7885H123.371L128.616 22.0023H126.495ZM109.31 29.9998H111.222V17.4998H109.31V29.9998Z" fill="white"/>
<defs>
<linearGradient id="paint0_linear_321_65754" x1="22.284" y1="31.2902" x2="5.5057" y2="14.1391" gradientUnits="userSpaceOnUse">
<stop stop-color="#00A0FF"/>
<stop offset="0.0066" stop-color="#00A1FF"/>
<stop offset="0.2601" stop-color="#00BEFF"/>
<stop offset="0.5122" stop-color="#00D2FF"/>
<stop offset="0.7604" stop-color="#00DFFF"/>
<stop offset="1" stop-color="#00E3FF"/>
</linearGradient>
<linearGradient id="paint1_linear_321_65754" x1="34.5862" y1="19.9983" x2="9.85159" y2="19.9983" gradientUnits="userSpaceOnUse">
<stop stop-color="#FFE000"/>
<stop offset="0.4087" stop-color="#FFBD00"/>
<stop offset="0.7754" stop-color="#FFA500"/>
<stop offset="1" stop-color="#FF9C00"/>
</linearGradient>
<linearGradient id="paint2_linear_321_65754" x1="25.3784" y1="17.7036" x2="2.62564" y2="-5.55479" gradientUnits="userSpaceOnUse">
<stop stop-color="#FF3A44"/>
<stop offset="1" stop-color="#C31162"/>
</linearGradient>
<linearGradient id="paint3_linear_321_65754" x1="7.4592" y1="39.8237" x2="17.6193" y2="29.4378" gradientUnits="userSpaceOnUse">
<stop stop-color="#32A071"/>
<stop offset="0.0685" stop-color="#2DA771"/>
<stop offset="0.4762" stop-color="#15CF74"/>
<stop offset="0.8009" stop-color="#06E775"/>
<stop offset="1" stop-color="#00F076"/>
</linearGradient>
</defs>
</svg>
