<svg width="24" height="25" viewBox="0 0 24 25" fill="none" xmlns="http://www.w3.org/2000/svg">
<path fill-rule="evenodd" clip-rule="evenodd" d="M18.0602 2.77098C19.8537 2.1188 21.75 3.44701 21.75 5.35541V13C21.75 15.3472 19.8472 17.25 17.5 17.25C15.1528 17.25 13.25 15.3472 13.25 13C13.25 10.6528 15.1528 8.75001 17.5 8.75001C18.5488 8.75001 19.5088 9.12988 20.25 9.75953V5.35541C20.25 4.48796 19.3881 3.88422 18.5728 4.18067L12.8893 6.24739C11.605 6.71443 10.75 7.93508 10.75 9.30172V19C10.75 21.3472 8.84721 23.25 6.5 23.25C4.15279 23.25 2.25 21.3472 2.25 19C2.25 16.6528 4.15279 14.75 6.5 14.75C7.54875 14.75 8.50878 15.1299 9.25 15.7595V9.30172C9.25 7.30432 10.4996 5.5203 12.3767 4.8377L18.0602 2.77098Z" fill="#424242"/>
</svg>
