<svg width="13" height="12" viewBox="0 0 13 12" fill="none" xmlns="http://www.w3.org/2000/svg">
<path d="M5.19536 1.63581C5.5977 0.788206 6.7602 0.788204 7.16255 1.63581L7.8579 3.1007C8.01767 3.43728 8.32651 3.67057 8.68377 3.72455L10.2386 3.95945C11.1383 4.09537 11.4975 5.24488 10.8465 5.90465L9.72141 7.0449C9.4629 7.3069 9.34493 7.68437 9.40596 8.05432L9.67156 9.66438C9.82524 10.596 8.88476 11.3064 8.08007 10.8666L6.68937 10.1064C6.36983 9.93175 5.98808 9.93175 5.66854 10.1064L4.27784 10.8666C3.47315 11.3064 2.53267 10.596 2.68635 9.66438L2.95195 8.05432C3.01298 7.68437 2.89501 7.3069 2.6365 7.0449L1.51139 5.90465C0.860388 5.24488 1.21962 4.09537 2.11929 3.95945L3.67414 3.72455C4.0314 3.67057 4.34024 3.43728 4.50001 3.1007L5.19536 1.63581Z" fill="#FCBB07"/>
</svg>
