<svg width="32" height="32" viewBox="0 0 32 32" fill="none" xmlns="http://www.w3.org/2000/svg">
<path fill-rule="evenodd" clip-rule="evenodd" d="M20.9499 22.3641C21.3404 22.7546 21.9736 22.7546 22.3641 22.3641C22.7546 21.9736 22.7546 21.3404 22.3641 20.9499L17.4144 16.0001L22.3641 11.0504C22.7546 10.6599 22.7546 10.0267 22.3641 9.63621C21.9736 9.24569 21.3404 9.24569 20.9499 9.63621L16.0002 14.5859L11.0504 9.63616C10.6599 9.24563 10.0267 9.24563 9.63617 9.63616C9.24564 10.0267 9.24564 10.6598 9.63617 11.0504L14.5859 16.0001L9.63616 20.9499C9.24563 21.3404 9.24563 21.9736 9.63616 22.3641C10.0267 22.7547 10.6598 22.7547 11.0504 22.3641L16.0002 17.4144L20.9499 22.3641Z" fill="white"/>
</svg>
