<svg width="13" height="12" viewBox="0 0 13 12" fill="none" xmlns="http://www.w3.org/2000/svg">
<path d="M5.25493 1.63581C5.65727 0.788206 6.81977 0.788204 7.22212 1.63581L7.91747 3.1007C8.07724 3.43728 8.38608 3.67057 8.74334 3.72455L10.2982 3.95945C11.1979 4.09537 11.5571 5.24488 10.9061 5.90465L9.78098 7.0449C9.52247 7.3069 9.4045 7.68437 9.46553 8.05432L9.73113 9.66438C9.88481 10.596 8.94433 11.3064 8.13964 10.8666L6.74894 10.1064C6.4294 9.93175 6.04765 9.93175 5.72811 10.1064L4.33741 10.8666C3.53272 11.3064 2.59224 10.596 2.74592 9.66438L3.01152 8.05432C3.07255 7.68437 2.95458 7.3069 2.69607 7.0449L1.57096 5.90465C0.919958 5.24488 1.27919 4.09537 2.17886 3.95945L3.73371 3.72455C4.09097 3.67057 4.39981 3.43728 4.55958 3.1007L5.25493 1.63581Z" fill="#BBBBBB"/>
</svg>
