<svg width="15" height="15" viewBox="0 0 15 15" fill="none" xmlns="http://www.w3.org/2000/svg">
<path fill-rule="evenodd" clip-rule="evenodd" d="M10.6292 2.1381C11.6633 1.76206 12.7567 2.52788 12.7567 3.62822V8.03592C12.7567 9.38926 11.6596 10.4864 10.3062 10.4864C8.95287 10.4864 7.85577 9.38926 7.85577 8.03592C7.85577 6.68257 8.95287 5.58547 10.3062 5.58547C10.9109 5.58547 11.4644 5.80449 11.8918 6.16753V3.62822C11.8918 3.12807 11.3948 2.77997 10.9248 2.95089L7.64782 4.14252C6.90728 4.4118 6.41433 5.11559 6.41433 5.90357V11.4954C6.41433 12.8487 5.31722 13.9458 3.96388 13.9458C2.61053 13.9458 1.51343 12.8487 1.51343 11.4954C1.51343 10.142 2.61053 9.04493 3.96388 9.04493C4.56856 9.04493 5.12209 9.26395 5.54946 9.62699V5.90357C5.54946 4.75191 6.26994 3.72329 7.35226 3.32972L10.6292 2.1381Z" fill="white"/>
</svg>
