<svg width="13" height="12" viewBox="0 0 13 12" fill="none" xmlns="http://www.w3.org/2000/svg">
<path d="M5.0761 1.63581C5.47844 0.788206 6.64094 0.788204 7.04328 1.63581L7.73864 3.1007C7.89841 3.43728 8.20725 3.67057 8.5645 3.72455L10.1194 3.95945C11.019 4.09537 11.3783 5.24488 10.7273 5.90465L9.60215 7.0449C9.34364 7.3069 9.22567 7.68437 9.2867 8.05432L9.5523 9.66438C9.70598 10.596 8.7655 11.3064 7.96081 10.8666L6.57011 10.1064C6.25056 9.93175 5.86882 9.93175 5.54928 10.1064L4.15857 10.8666C3.35389 11.3064 2.4134 10.596 2.56709 9.66438L2.83269 8.05432C2.89371 7.68437 2.77575 7.3069 2.51723 7.0449L1.39213 5.90465C0.741125 5.24488 1.10036 4.09537 2.00002 3.95945L3.55488 3.72455C3.91214 3.67057 4.22097 3.43728 4.38075 3.1007L5.0761 1.63581Z" fill="#FCBB07"/>
</svg>
