<svg width="13" height="12" viewBox="0 0 13 12" fill="none" xmlns="http://www.w3.org/2000/svg">
<path d="M5.13579 1.63581C5.53813 0.788206 6.70063 0.788204 7.10298 1.63581L7.79833 3.1007C7.9581 3.43728 8.26694 3.67057 8.6242 3.72455L10.1791 3.95945C11.0787 4.09537 11.438 5.24488 10.7869 5.90465L9.66184 7.0449C9.40333 7.3069 9.28536 7.68437 9.34639 8.05432L9.61199 9.66438C9.76567 10.596 8.82519 11.3064 8.0205 10.8666L6.6298 10.1064C6.31026 9.93175 5.92851 9.93175 5.60897 10.1064L4.21827 10.8666C3.41358 11.3064 2.4731 10.596 2.62678 9.66438L2.89238 8.05432C2.95341 7.68437 2.83544 7.3069 2.57693 7.0449L1.45182 5.90465C0.800818 5.24488 1.16005 4.09537 2.05971 3.95945L3.61457 3.72455C3.97183 3.67057 4.28067 3.43728 4.44044 3.1007L5.13579 1.63581Z" fill="#FCBB07"/>
</svg>
