<svg width="12" height="12" viewBox="0 0 12 12" fill="none" xmlns="http://www.w3.org/2000/svg">
<path d="M5.01653 1.63581C5.41887 0.788206 6.58137 0.788204 6.98371 1.63581L7.67907 3.1007C7.83884 3.43728 8.14768 3.67057 8.50493 3.72455L10.0598 3.95945C10.9595 4.09537 11.3187 5.24488 10.6677 5.90465L9.54258 7.0449C9.28407 7.3069 9.1661 7.68437 9.22713 8.05432L9.49273 9.66438C9.64641 10.596 8.70593 11.3064 7.90124 10.8666L6.51054 10.1064C6.19099 9.93175 5.80925 9.93175 5.48971 10.1064L4.099 10.8666C3.29432 11.3064 2.35383 10.596 2.50751 9.66438L2.77312 8.05432C2.83414 7.68437 2.71618 7.3069 2.45766 7.0449L1.33256 5.90465C0.681555 5.24488 1.04079 4.09537 1.94045 3.95945L3.49531 3.72455C3.85257 3.67057 4.1614 3.43728 4.32118 3.1007L5.01653 1.63581Z" fill="#FCBB07"/>
</svg>
