<svg width="24" height="24" viewBox="0 0 24 24" fill="none" xmlns="http://www.w3.org/2000/svg">
<path fill-rule="evenodd" clip-rule="evenodd" d="M18.0602 2.27147C19.8537 1.61929 21.75 2.9475 21.75 4.8559V12.5005C21.75 14.8477 19.8472 16.7505 17.5 16.7505C15.1528 16.7505 13.25 14.8477 13.25 12.5005C13.25 10.1533 15.1528 8.2505 17.5 8.2505C18.5488 8.2505 19.5088 8.63037 20.25 9.26002V4.8559C20.25 3.98845 19.3881 3.38471 18.5728 3.68116L12.8893 5.74788C11.605 6.21492 10.75 7.43556 10.75 8.80221V18.5005C10.75 20.8477 8.84721 22.7505 6.5 22.7505C4.15279 22.7505 2.25 20.8477 2.25 18.5005C2.25 16.1533 4.15279 14.2505 6.5 14.2505C7.54875 14.2505 8.50878 14.6304 9.25 15.26V8.80221C9.25 6.80481 10.4996 5.02079 12.3767 4.33819L18.0602 2.27147Z" fill="white"/>
</svg>
