<svg width="17" height="16" viewBox="0 0 17 16" fill="none" xmlns="http://www.w3.org/2000/svg">
<path d="M1.83325 5.33301H3.16659L7.34141 7.1595C7.98264 7.44003 8.27751 8.1853 8.0018 8.82862V8.82862C7.72462 9.47538 6.97562 9.77498 6.32887 9.49779L5.16659 8.99967" stroke="#CC0F3C" stroke-width="1.5" stroke-linecap="round" stroke-linejoin="round"/>
<path d="M2.16866 10.6622C1.79818 10.4769 1.34767 10.6271 1.16243 10.9976C0.97719 11.3681 1.12736 11.8186 1.49784 12.0038L2.16866 10.6622ZM8.16866 8.66219L7.49784 8.32678L6.82702 9.66842L7.49784 10.0038L8.16866 8.66219ZM4.14409 12.4884L3.80868 13.1592L4.14409 12.4884ZM11.8819 11.4163H12.4999V9.91634H11.8819V11.4163ZM12.4999 12.583H7.7218V14.083H12.4999V12.583ZM4.4795 11.8176L2.16866 10.6622L1.49784 12.0038L3.80868 13.1592L4.4795 11.8176ZM9.59926 9.37749L8.16866 8.66219L7.49784 10.0038L8.92844 10.7191L9.59926 9.37749ZM7.7218 12.583C6.59627 12.583 5.4862 12.321 4.4795 11.8176L3.80868 13.1592C5.02366 13.7667 6.3634 14.083 7.7218 14.083V12.583ZM13.0833 11.9997C13.0833 12.3218 12.8221 12.583 12.4999 12.583V14.083C13.6505 14.083 14.5833 13.1503 14.5833 11.9997H13.0833ZM12.4999 11.4163C12.8221 11.4163 13.0833 11.6775 13.0833 11.9997H14.5833C14.5833 10.8491 13.6505 9.91634 12.4999 9.91634V11.4163ZM11.8819 9.91634C11.0895 9.91634 10.308 9.73185 9.59926 9.37749L8.92844 10.7191C9.84546 11.1776 10.8566 11.4163 11.8819 11.4163V9.91634Z" fill="#CC0F3C"/>
<path d="M8.90556 5.67395L10.2716 7.38149C11.0722 8.3823 12.5944 8.3823 13.3951 7.38149L14.7611 5.67395C15.0236 5.34578 15.1667 4.93803 15.1667 4.51777V4.43476C15.1667 3.45845 14.3752 2.66699 13.3989 2.66699H13.2006C12.8587 2.66699 12.5309 2.80281 12.2891 3.04456C12.0374 3.29627 11.6293 3.29627 11.3776 3.04456C11.1358 2.80281 10.8079 2.66699 10.466 2.66699H10.2678C9.29146 2.66699 8.5 3.45845 8.5 4.43476V4.51777C8.5 4.93803 8.64303 5.34578 8.90556 5.67395Z" stroke="#CC0F3C" stroke-width="1.5" stroke-linejoin="round"/>
</svg>
