<svg width="56" height="56" viewBox="0 0 56 56" fill="none" xmlns="http://www.w3.org/2000/svg">
<path opacity="0.4" fill-rule="evenodd" clip-rule="evenodd" d="M28 2.91699C28.9665 2.91699 29.75 3.70049 29.75 4.66699V11.667C29.75 12.6335 28.9665 13.417 28 13.417C27.0335 13.417 26.25 12.6335 26.25 11.667V4.66699C26.25 3.70049 27.0335 2.91699 28 2.91699Z" fill="white"/>
<path opacity="0.4" fill-rule="evenodd" clip-rule="evenodd" d="M28 42.584C28.9665 42.584 29.75 43.3675 29.75 44.334V51.334C29.75 52.3005 28.9665 53.084 28 53.084C27.0335 53.084 26.25 52.3005 26.25 51.334V44.334C26.25 43.3675 27.0335 42.584 28 42.584Z" fill="white"/>
<path opacity="0.4" fill-rule="evenodd" clip-rule="evenodd" d="M10.2633 10.2635C10.9467 9.58012 12.0548 9.58012 12.7382 10.2635L17.6879 15.2133C18.3714 15.8967 18.3714 17.0047 17.6879 17.6882C17.0045 18.3716 15.8965 18.3716 15.2131 17.6882L10.2633 12.7384C9.5799 12.055 9.5799 10.947 10.2633 10.2635Z" fill="white"/>
<path opacity="0.4" fill-rule="evenodd" clip-rule="evenodd" d="M38.3123 38.3124C38.9957 37.629 40.1037 37.629 40.7871 38.3124L45.7369 43.2621C46.4203 43.9455 46.4203 45.0536 45.7369 45.737C45.0535 46.4204 43.9454 46.4204 43.262 45.737L38.3123 40.7872C37.6288 40.1038 37.6288 38.9958 38.3123 38.3124Z" fill="white"/>
<path opacity="0.4" fill-rule="evenodd" clip-rule="evenodd" d="M53.0834 28C53.0834 28.9665 52.2999 29.75 51.3334 29.75L44.3334 29.75C43.3669 29.75 42.5834 28.9665 42.5834 28C42.5834 27.0335 43.3669 26.25 44.3334 26.25L51.3334 26.25C52.2999 26.25 53.0834 27.0335 53.0834 28Z" fill="white"/>
<path opacity="0.4" fill-rule="evenodd" clip-rule="evenodd" d="M13.4167 28C13.4167 28.9665 12.6332 29.75 11.6667 29.75L4.66675 29.75C3.70025 29.75 2.91675 28.9665 2.91675 28C2.91675 27.0335 3.70025 26.25 4.66675 26.25L11.6667 26.25C12.6332 26.25 13.4167 27.0335 13.4167 28Z" fill="white"/>
<path fill-rule="evenodd" clip-rule="evenodd" d="M45.7366 10.2638C46.42 10.9472 46.42 12.0553 45.7366 12.7387L40.7868 17.6884C40.1034 18.3718 38.9954 18.3718 38.312 17.6884C37.6285 17.005 37.6285 15.897 38.312 15.2136L43.2617 10.2638C43.9451 9.58039 45.0532 9.58039 45.7366 10.2638Z" fill="white"/>
<path opacity="0.4" fill-rule="evenodd" clip-rule="evenodd" d="M17.6881 38.3126C18.3715 38.996 18.3715 40.1041 17.6881 40.7875L12.7384 45.7373C12.055 46.4207 10.9469 46.4207 10.2635 45.7373C9.58008 45.0538 9.58008 43.9458 10.2635 43.2624L15.2132 38.3126C15.8967 37.6292 17.0047 37.6292 17.6881 38.3126Z" fill="white"/>
</svg>
