<svg width="375" height="56" viewBox="0 0 375 56" fill="none" xmlns="http://www.w3.org/2000/svg">
<path fill-rule="evenodd" clip-rule="evenodd" d="M166.789 8.68389C167.224 9.08842 167.654 9.48775 168.079 9.87689C172.609 14.0269 179.752 16.7042 187.79 16.7042C195.827 16.7042 202.971 14.0269 207.5 9.87689C207.925 9.48775 208.355 9.08842 208.791 8.68389C213.183 4.60574 218.142 0 223.95 0H359C367.837 0 375 7.16344 375 16V44V56H363H12H0V44V16C0 7.16344 7.16344 0 16 0H151.63C157.437 0 162.397 4.60574 166.789 8.68389Z" fill="white" fill-opacity="0.08"/>
</svg>
