<svg width="20" height="8" viewBox="0 0 20 8" fill="none" xmlns="http://www.w3.org/2000/svg">
<path d="M1.33541 3.32918C0.964926 3.14394 0.514422 3.29411 0.32918 3.66459C0.143938 4.03507 0.294106 4.48558 0.66459 4.67082L1.33541 3.32918ZM10.3354 0.32918L9.66459 -0.00623059L8.99377 1.33541L9.66459 1.67082L10.3354 0.32918ZM12.7331 2.36656L12.3977 3.03738L12.7331 2.36656ZM15.4164 3.75H17V2.25H15.4164V3.75ZM17 6.25H8.88854V7.75H17V6.25ZM5.64625 5.4846L1.33541 3.32918L0.66459 4.67082L4.97542 6.82624L5.64625 5.4846ZM13.0685 1.69574L10.3354 0.32918L9.66459 1.67082L12.3977 3.03738L13.0685 1.69574ZM8.88854 6.25C7.76302 6.25 6.65295 5.98795 5.64625 5.4846L4.97542 6.82624C6.19041 7.43373 7.53015 7.75 8.88854 7.75V6.25ZM18.25 5C18.25 5.69036 17.6904 6.25 17 6.25V7.75C18.5188 7.75 19.75 6.51878 19.75 5H18.25ZM17 3.75C17.6904 3.75 18.25 4.30964 18.25 5H19.75C19.75 3.48122 18.5188 2.25 17 2.25V3.75ZM15.4164 2.25C14.6014 2.25 13.7975 2.06024 13.0685 1.69574L12.3977 3.03738C13.335 3.50602 14.3685 3.75 15.4164 3.75V2.25Z" fill="white"/>
</svg>
