<svg width="12" height="11" viewBox="0 0 12 11" fill="none" xmlns="http://www.w3.org/2000/svg">
<path d="M1.60835 5.51043L4.43826 9.04783C5.23891 10.0486 6.76109 10.0486 7.56174 9.04783L10.3917 5.51043C10.7855 5.01818 11 4.40656 11 3.77617V3.65165C11 2.18718 9.81282 1 8.34835 1H8.05094C7.53811 1 7.04628 1.20372 6.68365 1.56635C6.30608 1.94392 5.69392 1.94392 5.31635 1.56635C4.95372 1.20372 4.46189 1 3.94906 1H3.65165C2.18718 1 1 2.18718 1 3.65165V3.77617C1 4.40656 1.21454 5.01818 1.60835 5.51043Z" stroke="white" stroke-width="1.5" stroke-linejoin="round"/>
</svg>
