<svg width="24" height="25" viewBox="0 0 24 25" fill="none" xmlns="http://www.w3.org/2000/svg">
<path d="M8.63118 10.5267C8.05656 9.37969 6.87023 8.59229 5.5 8.59229C3.567 8.59229 2 10.1593 2 12.0923C2 14.0253 3.567 15.5923 5.5 15.5923C6.87023 15.5923 8.05656 14.8049 8.63118 13.6579M8.63118 10.5267C8.86718 10.9978 9 11.5295 9 12.0923C9 12.655 8.86718 13.1868 8.63118 13.6579M8.63118 10.5267L15.3688 7.15788M8.63118 13.6579L15.3688 17.0267M15.3688 7.15788C15.9434 8.30488 17.1298 9.09229 18.5 9.09229C20.433 9.09229 22 7.52528 22 5.59229C22 3.65929 20.433 2.09229 18.5 2.09229C16.567 2.09229 15 3.65929 15 5.59229C15 6.15505 15.1328 6.68679 15.3688 7.15788ZM15.3688 17.0267C15.1328 17.4978 15 18.0295 15 18.5923C15 20.5253 16.567 22.0923 18.5 22.0923C20.433 22.0923 22 20.5253 22 18.5923C22 16.6593 20.433 15.0923 18.5 15.0923C17.1298 15.0923 15.9434 15.8797 15.3688 17.0267Z" stroke="white" stroke-width="1.5" stroke-linecap="round"/>
</svg>
