<svg width="32" height="33" viewBox="0 0 32 33" fill="none" xmlns="http://www.w3.org/2000/svg">
<path d="M11.5081 14.0037C10.7419 12.4743 9.16015 11.4245 7.33317 11.4245C4.75584 11.4245 2.6665 13.5138 2.6665 16.0911C2.6665 18.6685 4.75584 20.7578 7.33317 20.7578C9.16015 20.7578 10.7419 19.7079 11.5081 18.1786M11.5081 14.0037C11.8227 14.6318 11.9998 15.3408 11.9998 16.0911C11.9998 16.8415 11.8227 17.5505 11.5081 18.1786M11.5081 14.0037L20.4916 9.51193M11.5081 18.1786L20.4916 22.6704M20.4916 9.51193C21.2578 11.0413 22.8395 12.0911 24.6665 12.0911C27.2438 12.0911 29.3332 10.0018 29.3332 7.42448C29.3332 4.84715 27.2438 2.75781 24.6665 2.75781C22.0892 2.75781 19.9998 4.84715 19.9998 7.42448C19.9998 8.17483 20.1769 8.88382 20.4916 9.51193ZM20.4916 22.6704C20.1769 23.2985 19.9998 24.0075 19.9998 24.7578C19.9998 27.3351 22.0892 29.4245 24.6665 29.4245C27.2438 29.4245 29.3332 27.3351 29.3332 24.7578C29.3332 22.1805 27.2438 20.0911 24.6665 20.0911C22.8395 20.0911 21.2578 21.141 20.4916 22.6704Z" stroke="white" stroke-width="1.5" stroke-linecap="round"/>
</svg>
