<svg width="24" height="25" viewBox="0 0 24 25" fill="none" xmlns="http://www.w3.org/2000/svg">
<path d="M8.63118 10.5262C8.05656 9.3792 6.87023 8.5918 5.5 8.5918C3.567 8.5918 2 10.1588 2 12.0918C2 14.0248 3.567 15.5918 5.5 15.5918C6.87023 15.5918 8.05656 14.8044 8.63118 13.6574M8.63118 10.5262C8.86718 10.9973 9 11.529 9 12.0918C9 12.6546 8.86718 13.1863 8.63118 13.6574M8.63118 10.5262L15.3688 7.15739M8.63118 13.6574L15.3688 17.0262M15.3688 7.15739C15.9434 8.30439 17.1298 9.0918 18.5 9.0918C20.433 9.0918 22 7.52479 22 5.5918C22 3.6588 20.433 2.0918 18.5 2.0918C16.567 2.0918 15 3.6588 15 5.5918C15 6.15456 15.1328 6.6863 15.3688 7.15739ZM15.3688 17.0262C15.1328 17.4973 15 18.029 15 18.5918C15 20.5248 16.567 22.0918 18.5 22.0918C20.433 22.0918 22 20.5248 22 18.5918C22 16.6588 20.433 15.0918 18.5 15.0918C17.1298 15.0918 15.9434 15.8792 15.3688 17.0262Z" stroke="white" stroke-width="1.5" stroke-linecap="round"/>
</svg>
