<svg width="32" height="33" viewBox="0 0 32 33" fill="none" xmlns="http://www.w3.org/2000/svg">
<path d="M11.5081 14.0047C10.7419 12.4753 9.16015 11.4255 7.33317 11.4255C4.75584 11.4255 2.6665 13.5148 2.6665 16.0921C2.6665 18.6695 4.75584 20.7588 7.33317 20.7588C9.16015 20.7588 10.7419 19.7089 11.5081 18.1796M11.5081 14.0047C11.8227 14.6328 11.9998 15.3418 11.9998 16.0921C11.9998 16.8425 11.8227 17.5515 11.5081 18.1796M11.5081 14.0047L20.4916 9.51291M11.5081 18.1796L20.4916 22.6713M20.4916 9.51291C21.2578 11.0423 22.8395 12.0921 24.6665 12.0921C27.2438 12.0921 29.3332 10.0028 29.3332 7.42546C29.3332 4.84813 27.2438 2.75879 24.6665 2.75879C22.0892 2.75879 19.9998 4.84813 19.9998 7.42546C19.9998 8.17581 20.1769 8.8848 20.4916 9.51291ZM20.4916 22.6713C20.1769 23.2994 19.9998 24.0084 19.9998 24.7588C19.9998 27.3361 22.0892 29.4255 24.6665 29.4255C27.2438 29.4255 29.3332 27.3361 29.3332 24.7588C29.3332 22.1815 27.2438 20.0921 24.6665 20.0921C22.8395 20.0921 21.2578 21.142 20.4916 22.6713Z" stroke="white" stroke-width="1.5" stroke-linecap="round"/>
</svg>
