<svg width="24" height="36" viewBox="0 0 24 36" fill="none" xmlns="http://www.w3.org/2000/svg">
<path fill-rule="evenodd" clip-rule="evenodd" d="M3.36619 22.276L1 35.998L12.7336 29.911L23 35.998L20.1716 22.3291L18.7708 22.0002C18.5982 21.9597 18.4283 22.0769 18.4049 22.2527L18.1903 23.8633C18.163 24.0687 17.9406 24.1852 17.7562 24.0907L16.3207 23.3554C16.1626 23.2744 15.9692 23.3477 15.9045 23.5131L15.3139 25.0233C15.2383 25.2165 14.9942 25.2766 14.8377 25.1405L13.619 24.081C13.4848 23.9644 13.2793 23.9894 13.1769 24.1347L12.2452 25.4574C12.1257 25.6271 11.8741 25.6271 11.7546 25.4574L10.8229 24.1347C10.7205 23.9894 10.515 23.9644 10.3808 24.081L9.16213 25.1405C9.00558 25.2766 8.76147 25.2165 8.68591 25.0233L8.09528 23.5131C8.03059 23.3477 7.83718 23.2744 7.67911 23.3554L6.24362 24.0907C6.0592 24.1852 5.83682 24.0687 5.80947 23.8633L5.59493 22.2527C5.57152 22.0769 5.4016 21.9597 5.22898 22.0002L3.65909 22.3688C3.54527 22.3956 3.43583 22.3542 3.36619 22.276Z" fill="#CC0F3C"/>
<path d="M11.7552 0.345373C11.8748 0.176659 12.1252 0.176659 12.2448 0.345373L13.053 1.48576C13.1553 1.63022 13.3599 1.65506 13.4939 1.5393L14.5515 0.625459C14.708 0.490263 14.9511 0.550186 15.0268 0.742612L15.5386 2.04328C15.6034 2.20803 15.7961 2.2811 15.9539 2.20077L17.1994 1.56659C17.3837 1.47277 17.6054 1.58913 17.6329 1.79409L17.8186 3.17944C17.8421 3.35492 18.0117 3.47198 18.1841 3.43174L19.5452 3.11408C19.7466 3.06708 19.934 3.23312 19.9117 3.4387L19.7604 4.82822C19.7412 5.00423 19.8779 5.15847 20.0549 5.16067L21.4525 5.17798C21.6593 5.18054 21.8015 5.38661 21.7306 5.58086L21.2512 6.8938C21.1905 7.06011 21.2862 7.24257 21.4576 7.28707L22.8105 7.63835C23.0106 7.69032 23.0994 7.92445 22.9841 8.09607L22.2044 9.25613C22.1056 9.40308 22.1549 9.60315 22.3107 9.68737L23.5401 10.3522C23.722 10.4506 23.7522 10.6991 23.5992 10.8382L22.5645 11.7779C22.4334 11.897 22.4334 12.103 22.5645 12.2221L23.5992 13.1618C23.7522 13.3009 23.722 13.5494 23.5401 13.6478L22.3107 14.3126C22.1549 14.3968 22.1056 14.5969 22.2044 14.7439L22.9841 15.9039C23.0994 16.0756 23.0106 16.3097 22.8105 16.3616L21.4576 16.7129C21.2862 16.7574 21.1905 16.9399 21.2512 17.1062L21.7306 18.4191C21.8015 18.6134 21.6593 18.8195 21.4525 18.822L20.0549 18.8393C19.8779 18.8415 19.7412 18.9958 19.7604 19.1718L19.9117 20.5613C19.934 20.7669 19.7466 20.9329 19.5452 20.8859L18.1841 20.5683C18.0117 20.528 17.8421 20.6451 17.8186 20.8206L17.6329 22.2059C17.6054 22.4109 17.3837 22.5272 17.1994 22.4334L15.9539 21.7992C15.7961 21.7189 15.6034 21.792 15.5386 21.9567L15.0268 23.2574C14.9511 23.4498 14.708 23.5097 14.5515 23.3745L13.4939 22.4607C13.3599 22.3449 13.1553 22.3698 13.053 22.5142L12.2448 23.6546C12.1252 23.8233 11.8748 23.8233 11.7552 23.6546L10.947 22.5142C10.8447 22.3698 10.6401 22.3449 10.5061 22.4607L9.44852 23.3745C9.29205 23.5097 9.04893 23.4498 8.97321 23.2574L8.46142 21.9567C8.39659 21.792 8.20392 21.7189 8.04614 21.7992L6.80055 22.4334C6.61628 22.5272 6.39456 22.4109 6.3671 22.2059L6.18144 20.8206C6.15793 20.6451 5.98834 20.528 5.81592 20.5683L4.45476 20.8859C4.25339 20.9329 4.06596 20.7669 4.08834 20.5613L4.23962 19.1718C4.25878 18.9958 4.12214 18.8415 3.9451 18.8393L2.54747 18.822C2.3407 18.8195 2.19846 18.6134 2.26939 18.4191L2.7488 17.1062C2.80953 16.9399 2.71377 16.7574 2.5424 16.7129L1.18953 16.3616C0.98938 16.3097 0.900589 16.0756 1.01594 15.9039L1.79563 14.7439C1.8944 14.5969 1.84509 14.3968 1.68934 14.3126L0.459852 13.6478C0.277956 13.5494 0.247774 13.3009 0.400845 13.1618L1.4355 12.2221C1.56657 12.103 1.56657 11.897 1.4355 11.7779L0.400846 10.8382C0.247774 10.6991 0.277956 10.4506 0.459852 10.3522L1.68934 9.68737C1.84508 9.60315 1.8944 9.40308 1.79563 9.25613L1.01594 8.09607C0.900589 7.92445 0.98938 7.69032 1.18953 7.63835L2.5424 7.28707C2.71377 7.24257 2.80953 7.06011 2.7488 6.8938L2.26939 5.58086C2.19846 5.38661 2.3407 5.18054 2.54747 5.17798L3.9451 5.16067C4.12214 5.15847 4.25878 5.00423 4.23962 4.82822L4.08834 3.4387C4.06596 3.23312 4.25339 3.06708 4.45476 3.11408L5.81592 3.43174C5.98834 3.47198 6.15793 3.35492 6.18144 3.17944L6.3671 1.79409C6.39456 1.58913 6.61628 1.47277 6.80055 1.56659L8.04614 2.20077C8.20392 2.2811 8.39659 2.20803 8.46142 2.04328L8.97321 0.742611C9.04893 0.550186 9.29205 0.490262 9.44852 0.625459L10.5061 1.5393C10.6401 1.65506 10.8447 1.63022 10.947 1.48576L11.7552 0.345373Z" fill="#CC0F3C"/>
<path d="M7.16469 16C6.99669 16 6.86469 15.952 6.76869 15.856C6.67269 15.76 6.62469 15.632 6.62469 15.472C6.62469 15.304 6.67269 15.176 6.76869 15.088C6.86469 15 6.99669 14.956 7.16469 14.956H8.62869V8.572H9.25269L7.50069 9.688C7.37269 9.76 7.25269 9.788 7.14069 9.772C7.03669 9.756 6.94469 9.712 6.86469 9.64C6.79269 9.568 6.74069 9.48 6.70869 9.376C6.68469 9.272 6.69269 9.164 6.73269 9.052C6.78069 8.94 6.86469 8.848 6.98469 8.776L8.64069 7.732C8.77669 7.652 8.90469 7.588 9.02469 7.54C9.15269 7.484 9.27269 7.456 9.38469 7.456C9.52069 7.456 9.63269 7.496 9.72069 7.576C9.81669 7.648 9.86469 7.772 9.86469 7.948V14.956H11.2087C11.3847 14.956 11.5207 15 11.6167 15.088C11.7127 15.176 11.7607 15.304 11.7607 15.472C11.7607 15.64 11.7127 15.772 11.6167 15.868C11.5207 15.956 11.3847 16 11.2087 16H7.16469ZM14.54 16.084C14.396 16.084 14.272 16.052 14.168 15.988C14.072 15.916 14.012 15.82 13.988 15.7C13.972 15.572 14 15.432 14.072 15.28L17.828 8.116V8.584H13.7C13.524 8.584 13.388 8.54 13.292 8.452C13.196 8.356 13.148 8.228 13.148 8.068C13.148 7.9 13.196 7.772 13.292 7.684C13.388 7.588 13.524 7.54 13.7 7.54H18.416C18.592 7.54 18.732 7.588 18.836 7.684C18.948 7.772 19.004 7.9 19.004 8.068C19.004 8.212 18.984 8.336 18.944 8.44C18.912 8.544 18.864 8.66 18.8 8.788L15.236 15.676C15.164 15.82 15.072 15.924 14.96 15.988C14.848 16.052 14.708 16.084 14.54 16.084Z" fill="white"/>
</svg>
