<svg width="24" height="25" viewBox="0 0 24 25" fill="none" xmlns="http://www.w3.org/2000/svg">
<path d="M2 8.0918H4L10.2622 10.8315C11.2241 11.2523 11.6664 12.3702 11.2528 13.3352V13.3352C10.837 14.3053 9.71355 14.7547 8.74342 14.339L7 13.5918" stroke="white" stroke-width="1.5" stroke-linecap="round" stroke-linejoin="round"/>
<path d="M2.33541 16.421C1.96493 16.2357 1.51442 16.3859 1.32918 16.7564C1.14394 17.1269 1.29411 17.5774 1.66459 17.7626L2.33541 16.421ZM11.3354 13.421L10.6646 13.0856L9.99377 14.4272L10.6646 14.7626L11.3354 13.421ZM13.7331 15.4584L13.3977 16.1292L13.7331 15.4584ZM16.4164 16.8418H18V15.3418H16.4164V16.8418ZM18 19.3418H9.88854V20.8418H18V19.3418ZM6.64625 18.5764L2.33541 16.421L1.66459 17.7626L5.97542 19.918L6.64625 18.5764ZM14.0685 14.7875L11.3354 13.421L10.6646 14.7626L13.3977 16.1292L14.0685 14.7875ZM9.88854 19.3418C8.76302 19.3418 7.65295 19.0797 6.64625 18.5764L5.97542 19.918C7.19041 20.5255 8.53015 20.8418 9.88854 20.8418V19.3418ZM19.25 18.0918C19.25 18.7822 18.6904 19.3418 18 19.3418V20.8418C19.5188 20.8418 20.75 19.6106 20.75 18.0918H19.25ZM18 16.8418C18.6904 16.8418 19.25 17.4014 19.25 18.0918H20.75C20.75 16.573 19.5188 15.3418 18 15.3418V16.8418ZM16.4164 15.3418C15.6014 15.3418 14.7975 15.152 14.0685 14.7875L13.3977 16.1292C14.335 16.5978 15.3685 16.8418 16.4164 16.8418V15.3418Z" fill="white"/>
<path d="M12.6083 8.60223L15.4383 12.1396C16.2389 13.1404 17.7611 13.1404 18.5617 12.1396L21.3917 8.60223C21.7855 8.10998 22 7.49836 22 6.86797V6.74345C22 5.27898 20.8128 4.0918 19.3484 4.0918H19.0509C18.5381 4.0918 18.0463 4.29552 17.6836 4.65815C17.3061 5.03572 16.6939 5.03572 16.3164 4.65815C15.9537 4.29552 15.4619 4.0918 14.9491 4.0918H14.6517C13.1872 4.0918 12 5.27898 12 6.74345V6.86797C12 7.49836 12.2145 8.10998 12.6083 8.60223Z" stroke="white" stroke-width="1.5" stroke-linejoin="round"/>
</svg>
