<svg width="24" height="25" viewBox="0 0 24 25" fill="none" xmlns="http://www.w3.org/2000/svg">
<path d="M2 8.09229H4L10.2622 10.832C11.2241 11.2528 11.6664 12.3707 11.2528 13.3357V13.3357C10.837 14.3058 9.71355 14.7552 8.74342 14.3395L7 13.5923" stroke="white" stroke-width="1.5" stroke-linecap="round" stroke-linejoin="round"/>
<path d="M2.33541 16.4215C1.96493 16.2362 1.51442 16.3864 1.32918 16.7569C1.14394 17.1274 1.29411 17.5779 1.66459 17.7631L2.33541 16.4215ZM11.3354 13.4215L10.6646 13.0861L9.99377 14.4277L10.6646 14.7631L11.3354 13.4215ZM13.7331 15.4588L13.3977 16.1297L13.7331 15.4588ZM16.4164 16.8423H18V15.3423H16.4164V16.8423ZM18 19.3423H9.88854V20.8423H18V19.3423ZM6.64625 18.5769L2.33541 16.4215L1.66459 17.7631L5.97542 19.9185L6.64625 18.5769ZM14.0685 14.788L11.3354 13.4215L10.6646 14.7631L13.3977 16.1297L14.0685 14.788ZM9.88854 19.3423C8.76302 19.3423 7.65295 19.0802 6.64625 18.5769L5.97542 19.9185C7.19041 20.526 8.53015 20.8423 9.88854 20.8423V19.3423ZM19.25 18.0923C19.25 18.7826 18.6904 19.3423 18 19.3423V20.8423C19.5188 20.8423 20.75 19.6111 20.75 18.0923H19.25ZM18 16.8423C18.6904 16.8423 19.25 17.4019 19.25 18.0923H20.75C20.75 16.5735 19.5188 15.3423 18 15.3423V16.8423ZM16.4164 15.3423C15.6014 15.3423 14.7975 15.1525 14.0685 14.788L13.3977 16.1297C14.335 16.5983 15.3685 16.8423 16.4164 16.8423V15.3423Z" fill="white"/>
<path d="M12.6083 8.60272L15.4383 12.1401C16.2389 13.1409 17.7611 13.1409 18.5617 12.1401L21.3917 8.60272C21.7855 8.11047 22 7.49885 22 6.86846V6.74394C22 5.27947 20.8128 4.09229 19.3484 4.09229H19.0509C18.5381 4.09229 18.0463 4.29601 17.6836 4.65864C17.3061 5.03621 16.6939 5.03621 16.3164 4.65864C15.9537 4.29601 15.4619 4.09229 14.9491 4.09229H14.6517C13.1872 4.09229 12 5.27947 12 6.74394V6.86846C12 7.49885 12.2145 8.11047 12.6083 8.60272Z" stroke="white" stroke-width="1.5" stroke-linejoin="round"/>
</svg>
