<svg width="40" height="40" viewBox="0 0 40 40" fill="none" xmlns="http://www.w3.org/2000/svg">
<path d="M21.6667 3.33398V10.0007C21.6667 13.6825 24.6514 16.6673 28.3333 16.6673L35 16.6673M5 10.0007L5 30.0007C5 33.6826 7.98477 36.6673 11.6667 36.6673H28.3333C32.0152 36.6673 35 33.6826 35 30.0007V19.4287C35 17.6606 34.2976 15.9649 33.0474 14.7147L23.6193 5.2866C22.369 4.03636 20.6734 3.33398 18.9052 3.33398L11.6667 3.33398C7.98477 3.33398 5 6.31875 5 10.0007ZM16.6667 23.0053V26.996C16.6667 28.9928 18.892 30.1837 20.5534 29.0762L23.5465 27.0808C25.0308 26.0912 25.0308 23.9101 23.5465 22.9205L20.5534 20.9252C18.892 19.8176 16.6667 21.0085 16.6667 23.0053Z" stroke="white" stroke-width="1.5" stroke-linejoin="round"/>
</svg>
