<svg width="32" height="33" viewBox="0 0 32 33" fill="none" xmlns="http://www.w3.org/2000/svg">
<path d="M13.3769 4.45401C14.4498 2.19372 17.5498 2.19372 18.6228 4.454L20.477 8.36036C20.9031 9.25792 21.7266 9.88004 22.6793 10.024L26.8256 10.6504C29.2247 11.0128 30.1827 14.0782 28.4467 15.8376L25.4464 18.8782C24.757 19.5769 24.4424 20.5835 24.6052 21.57L25.3135 25.8635C25.7233 28.3478 23.2153 30.2423 21.0695 29.0694L17.3609 27.0423C16.5088 26.5765 15.4908 26.5765 14.6387 27.0423L10.9302 29.0694C8.78436 30.2423 6.2764 28.3478 6.68622 25.8635L7.39449 21.57C7.55723 20.5835 7.24265 19.5769 6.55328 18.8782L3.553 15.8376C1.81699 14.0782 2.77494 11.0128 5.17405 10.6504L9.32033 10.024C10.273 9.88004 11.0966 9.25792 11.5226 8.36036L13.3769 4.45401Z" stroke="white" stroke-width="1.5" stroke-linejoin="round"/>
</svg>
