<svg width="32" height="33" viewBox="0 0 32 33" fill="none" xmlns="http://www.w3.org/2000/svg">
<path d="M28.1736 13.2286C29.7197 14.8554 29.7197 17.3269 28.1736 18.9537C25.5658 21.6974 21.0872 25.4245 15.9998 25.4245C10.9125 25.4245 6.43383 21.6974 3.82611 18.9537C2.27997 17.3269 2.27997 14.8554 3.82611 13.2286C6.43383 10.4849 10.9125 6.75781 15.9998 6.75781C21.0872 6.75781 25.5658 10.4849 28.1736 13.2286Z" stroke="white" stroke-width="1.5"/>
<path d="M19.9998 16.0911C19.9998 18.3003 18.209 20.0911 15.9998 20.0911C13.7907 20.0911 11.9998 18.3003 11.9998 16.0911C11.9998 13.882 13.7907 12.0911 15.9998 12.0911C18.209 12.0911 19.9998 13.882 19.9998 16.0911Z" stroke="white" stroke-width="1.5"/>
</svg>
