<svg width="16" height="16" viewBox="0 0 16 16" fill="none" xmlns="http://www.w3.org/2000/svg">
<path d="M14.0868 6.56938C14.8599 7.38277 14.8599 8.61854 14.0868 9.43192C12.7829 10.8038 10.5436 12.6673 7.99992 12.6673C5.45624 12.6673 3.21691 10.8038 1.91306 9.43192C1.13998 8.61854 1.13998 7.38277 1.91306 6.56938C3.21691 5.19754 5.45624 3.33398 7.99992 3.33398C10.5436 3.33398 12.7829 5.19754 14.0868 6.56938Z" stroke="white" stroke-width="1.5"/>
<path d="M9.99992 8.00065C9.99992 9.10522 9.10449 10.0007 7.99992 10.0007C6.89535 10.0007 5.99992 9.10522 5.99992 8.00065C5.99992 6.89608 6.89535 6.00065 7.99992 6.00065C9.10449 6.00065 9.99992 6.89608 9.99992 8.00065Z" stroke="white" stroke-width="1.5"/>
</svg>
