<svg width="17" height="16" viewBox="0 0 17 16" fill="none" xmlns="http://www.w3.org/2000/svg">
<g clip-path="url(#clip0_9001_5613)">
<path d="M1.99902 5.33301H3.33236L7.50719 7.1595C8.14841 7.44003 8.44328 8.1853 8.16757 8.82862V8.82862C7.89039 9.47538 7.14139 9.77498 6.49464 9.49779L5.33236 8.99967" stroke="#CC0F3C" stroke-width="1.5" stroke-linecap="round" stroke-linejoin="round"/>
<path d="M2.33443 10.6622C1.96395 10.4769 1.51344 10.6271 1.3282 10.9976C1.14296 11.3681 1.29313 11.8186 1.66361 12.0038L2.33443 10.6622ZM8.33443 8.66219L7.66361 8.32678L6.99279 9.66842L7.66361 10.0038L8.33443 8.66219ZM4.30986 12.4884L3.97445 13.1592L4.30986 12.4884ZM12.0477 11.4163H12.6657V9.91634H12.0477V11.4163ZM12.6657 12.583H7.88757V14.083H12.6657V12.583ZM4.64527 11.8176L2.33443 10.6622L1.66361 12.0038L3.97445 13.1592L4.64527 11.8176ZM9.76503 9.37749L8.33443 8.66219L7.66361 10.0038L9.09421 10.7191L9.76503 9.37749ZM7.88757 12.583C6.76204 12.583 5.65197 12.321 4.64527 11.8176L3.97445 13.1592C5.18943 13.7667 6.52917 14.083 7.88757 14.083V12.583ZM13.249 11.9997C13.249 12.3218 12.9879 12.583 12.6657 12.583V14.083C13.8163 14.083 14.749 13.1503 14.749 11.9997H13.249ZM12.6657 11.4163C12.9879 11.4163 13.249 11.6775 13.249 11.9997H14.749C14.749 10.8491 13.8163 9.91634 12.6657 9.91634V11.4163ZM12.0477 9.91634C11.2553 9.91634 10.4738 9.73185 9.76503 9.37749L9.09421 10.7191C10.0112 11.1776 11.0224 11.4163 12.0477 11.4163V9.91634Z" fill="#CC0F3C"/>
<path d="M9.07158 5.67395L10.4376 7.38149C11.2383 8.3823 12.7604 8.3823 13.5611 7.38149L14.9271 5.67395C15.1897 5.34578 15.3327 4.93803 15.3327 4.51777V4.43476C15.3327 3.45845 14.5412 2.66699 13.5649 2.66699H13.3666C13.0248 2.66699 12.6969 2.80281 12.4551 3.04456C12.2034 3.29627 11.7953 3.29627 11.5436 3.04456C11.3018 2.80281 10.9739 2.66699 10.6321 2.66699H10.4338C9.45747 2.66699 8.66602 3.45845 8.66602 4.43476V4.51777C8.66602 4.93803 8.80905 5.34578 9.07158 5.67395Z" stroke="#CC0F3C" stroke-width="1.5" stroke-linejoin="round"/>
</g>
<defs>
<clipPath id="clip0_9001_5613">
<rect width="16" height="16" fill="white" transform="translate(0.666016)"/>
</clipPath>
</defs>
</svg>
