<svg width="44" height="44" viewBox="0 0 44 44" fill="none" xmlns="http://www.w3.org/2000/svg">
<path fill-rule="evenodd" clip-rule="evenodd" d="M28.8058 30.7513C29.3427 31.2882 30.2133 31.2882 30.7503 30.7513C31.2873 30.2143 31.2873 29.3437 30.7503 28.8067L23.9444 22.0009L30.7503 15.195C31.2873 14.658 31.2873 13.7874 30.7503 13.2505C30.2133 12.7135 29.3427 12.7135 28.8058 13.2505L21.9999 20.0563L15.194 13.2504C14.657 12.7134 13.7864 12.7134 13.2494 13.2504C12.7125 13.7874 12.7125 14.658 13.2494 15.1949L20.0554 22.0009L13.2494 28.8068C12.7124 29.3438 12.7124 30.2144 13.2494 30.7514C13.7864 31.2883 14.657 31.2883 15.194 30.7514L21.9999 23.9454L28.8058 30.7513Z" fill="white"/>
</svg>
