<svg width="32" height="32" viewBox="0 0 32 32" fill="none" xmlns="http://www.w3.org/2000/svg">
<path fill-rule="evenodd" clip-rule="evenodd" d="M20.9497 22.3646C21.3402 22.7551 21.9734 22.7551 22.3639 22.3646C22.7544 21.974 22.7544 21.3409 22.3639 20.9504L17.4142 16.0006L22.3639 11.0509C22.7544 10.6604 22.7544 10.0272 22.3639 9.6367C21.9734 9.24618 21.3402 9.24618 20.9497 9.6367L16 14.5864L11.0502 9.63664C10.6597 9.24612 10.0265 9.24612 9.63598 9.63664C9.24546 10.0272 9.24546 10.6603 9.63598 11.0509L14.5858 16.0006L9.63597 20.9504C9.24545 21.3409 9.24545 21.9741 9.63597 22.3646C10.0265 22.7551 10.6597 22.7551 11.0502 22.3646L16 17.4148L20.9497 22.3646Z" fill="white"/>
</svg>
