<svg width="32" height="33" viewBox="0 0 32 33" fill="none" xmlns="http://www.w3.org/2000/svg">
<path d="M13.3769 4.45303C14.4498 2.19274 17.5498 2.19274 18.6228 4.45302L20.477 8.35938C20.9031 9.25694 21.7266 9.87906 22.6793 10.023L26.8256 10.6494C29.2247 11.0119 30.1827 14.0772 28.4467 15.8366L25.4464 18.8773C24.757 19.5759 24.4424 20.5825 24.6052 21.569L25.3135 25.8625C25.7233 28.3468 23.2153 30.2413 21.0695 29.0684L17.3609 27.0413C16.5088 26.5755 15.4908 26.5755 14.6387 27.0413L10.9302 29.0684C8.78436 30.2413 6.2764 28.3468 6.68622 25.8625L7.39449 21.569C7.55723 20.5825 7.24265 19.5759 6.55328 18.8773L3.553 15.8366C1.81699 14.0772 2.77494 11.0119 5.17405 10.6494L9.32033 10.023C10.273 9.87906 11.0966 9.25694 11.5226 8.35938L13.3769 4.45303Z" stroke="white" stroke-width="1.5" stroke-linejoin="round"/>
</svg>
