<svg width="28" height="28" viewBox="0 0 28 28" fill="none" xmlns="http://www.w3.org/2000/svg">
<path fill-rule="evenodd" clip-rule="evenodd" d="M14 25.6663C20.4433 25.6663 25.6667 20.443 25.6667 13.9997C25.6667 7.55635 20.4433 2.33301 14 2.33301C7.55669 2.33301 2.33334 7.55635 2.33334 13.9997C2.33334 20.443 7.55669 25.6663 14 25.6663ZM19.3574 11.0369C19.6541 10.6555 19.5853 10.1057 19.2039 9.80903C18.8224 9.51235 18.2727 9.58106 17.976 9.96252L13.3012 15.973C13.1972 16.1067 13.0017 16.124 12.8758 16.0107L9.91869 13.3493C9.5595 13.0261 9.00625 13.0552 8.68297 13.4144C8.35969 13.7736 8.38881 14.3268 8.74801 14.6501L11.7051 17.3115C12.5861 18.1044 13.9549 17.983 14.6825 17.0474L19.3574 11.0369Z" fill="#0C9F6E"/>
</svg>
