<svg width="100" height="50" viewBox="0 0 100 50" fill="none" xmlns="http://www.w3.org/2000/svg">
<g filter="url(#filter0_d_536_12615)">
<path d="M18.0604 17.3185C22.9211 12.9726 24.1839 9.59875 24.2077 8.45508C24.9463 10.7901 24.7509 17.1899 18.0604 24.1091C11.37 31.0283 13.0807 36.7133 14.7724 38.691C3.12121 30.1849 11.9847 22.751 18.0604 17.3185Z" fill="url(#paint0_linear_536_12615)"/>
<path d="M28.7109 35.117C17.3314 40.5494 15.2489 34.4737 15.6301 30.7567C11.6273 36.5466 17.1312 39.4057 21.6344 39.1198C25.237 38.8911 27.8532 36.3559 28.7109 35.117Z" fill="url(#paint1_linear_536_12615)"/>
<path d="M39.7188 28.7553C41.2627 16.9754 31.165 11.9338 25.9232 10.8854C29.7355 12.6724 37.2027 18.6195 36.5737 28.112C35.9446 37.6045 25.7326 40.9306 20.7052 41.4072C26.3997 42.0981 38.1748 40.5351 39.7188 28.7553Z" fill="url(#paint2_linear_536_12615)"/>
<path d="M4.9082 13.1013C5.0258 13.1237 5.15004 13.1525 5.27987 13.1879C6.84194 13.5491 9.81512 14.2328 10.984 15.4601C12.4136 16.9612 11.937 20.6304 11.4843 22.5366C11.3223 16.3251 7.49125 13.7912 5.27987 13.1879C5.14473 13.1566 5.02014 13.1278 4.9082 13.1013Z" fill="url(#paint3_linear_536_12615)"/>
<path d="M62.9159 10.7347C63.4874 10.7347 63.9711 10.8776 64.3668 11.1633C64.7625 11.4271 64.9603 11.7569 64.9603 12.1526C64.9603 12.8561 64.7405 13.4277 64.3008 13.8673C63.8612 14.285 63.2346 14.4939 62.4212 14.4939C61.1462 14.4939 60.1789 14.5049 59.5194 14.5268C59.4754 14.7906 59.2776 15.9778 58.9258 18.0882C58.5301 20.4404 58.2883 21.8804 58.2004 22.408L57.5079 26.7278C57.0242 29.9594 56.6395 32.6633 56.3537 34.8397C56.8154 34.8177 57.4419 34.8067 58.2333 34.8067C59.3985 34.8067 60.1899 34.9606 60.6076 35.2684C61.0253 35.5762 61.2341 36.0378 61.2341 36.6534C61.2341 37.2249 61.0033 37.7086 60.5416 38.1043C60.1019 38.5 59.4754 38.6979 58.662 38.6979C58.1124 38.6979 57.2441 38.6759 56.057 38.6319C54.9578 38.5879 54.2323 38.566 53.8806 38.566C52.4956 38.566 50.9787 38.6869 49.33 38.9287C48.6045 39.0386 48.0879 39.0936 47.7801 39.0936C47.2965 39.0936 46.8898 38.9617 46.56 38.6979C46.2303 38.434 46.0654 38.0493 46.0654 37.5437C46.0654 36.7523 46.4171 36.1368 47.1206 35.6971C47.8241 35.2574 48.8133 35.0266 50.0884 35.0046L51.6382 34.9716L51.7372 34.2462C52.2648 30.7288 52.6495 28.2446 52.8913 26.7937L53.6168 22.4739C54.0564 19.9238 54.4522 17.2968 54.8039 14.5928L52.034 14.6258C51.2425 14.6258 50.693 14.5049 50.3852 14.263C50.0994 13.9992 49.9565 13.6365 49.9565 13.1748C49.9565 11.68 51.0337 10.8776 53.1881 10.7676C54.1993 10.7237 55.4304 10.7017 56.8813 10.7017L62.9159 10.7347ZM83.2656 31.1465C83.5514 31.1465 83.7712 31.2784 83.9251 31.5422C84.101 31.806 84.1889 32.1687 84.1889 32.6304C84.1889 33.5097 83.98 34.1912 83.5624 34.6748C82.661 35.774 81.6718 36.7193 80.5946 37.5107C79.5174 38.2802 78.4512 38.6649 77.3959 38.6649C75.7252 38.6649 74.4501 37.6866 73.5708 35.7301C72.6475 36.8952 71.8341 37.6756 71.1306 38.0713C70.4491 38.467 69.6467 38.6649 68.7234 38.6649C67.3824 38.6649 66.2722 38.1702 65.3929 37.181C64.5355 36.1697 64.1068 34.8617 64.1068 33.2569C64.1068 31.4982 64.4806 29.8714 65.228 28.3765C65.9754 26.8597 66.9977 25.6286 68.2947 24.6833C69.6137 23.716 71.0866 23.1444 72.7134 22.9686C73.1311 18.7037 73.9225 15.0654 75.0877 12.0537C76.2748 9.01994 77.8246 7.50307 79.7372 7.50307C80.6825 7.50307 81.4629 7.93175 82.0785 8.78911C82.716 9.64647 83.0348 10.9435 83.0348 12.6802C83.0348 15.1424 82.4302 18.0222 81.2211 21.3198C80.012 24.6173 78.3962 28.0028 76.3737 31.4762C76.4616 32.7513 76.6485 33.6636 76.9343 34.2132C77.2421 34.7628 77.6268 35.0376 78.0884 35.0376C78.682 35.0376 79.2865 34.7738 79.9021 34.2462C80.5176 33.7186 81.342 32.8392 82.3752 31.6081C82.639 31.3004 82.9358 31.1465 83.2656 31.1465ZM79.3745 10.7347C78.9568 10.7347 78.5391 11.4821 78.1214 12.977C77.7037 14.4499 77.341 16.3845 77.0332 18.7807C76.7474 21.1769 76.5386 23.683 76.4067 26.2991C78.8689 20.9351 80.0999 16.6263 80.0999 13.3727C80.0999 12.5373 80.023 11.8888 79.8691 11.4271C79.7372 10.9655 79.5723 10.7347 79.3745 10.7347ZM69.8775 35.3344C70.2952 35.3344 70.7129 35.1695 71.1306 34.8397C71.5483 34.488 72.0759 33.8505 72.7134 32.9271C72.4936 31.74 72.3837 30.41 72.3837 28.9371C72.3837 28.4095 72.4057 27.5521 72.4496 26.365C71.2405 26.7388 70.2293 27.5521 69.4159 28.8052C68.6245 30.0363 68.2288 31.4103 68.2288 32.9271C68.2288 34.532 68.7784 35.3344 69.8775 35.3344ZM87.0791 38.6649C85.7821 38.6649 84.6719 38.3461 83.7486 37.7086C82.8473 37.0491 82.1658 36.1917 81.7041 35.1365C81.2425 34.0813 81.0117 32.9491 81.0117 31.74C81.0117 30.0693 81.3194 28.5854 81.935 27.2883C82.5725 25.9693 83.4299 24.9471 84.5071 24.2216C85.5842 23.4742 86.7933 23.1005 88.1344 23.1005C89.4314 23.1005 90.5416 23.4302 91.4649 24.0897C92.3882 24.7272 93.0807 25.5736 93.5423 26.6288C94.004 27.684 94.2348 28.8162 94.2348 30.0253C94.2348 31.6961 93.916 33.191 93.2785 34.51C92.641 35.807 91.7726 36.8292 90.6735 37.5767C89.5963 38.3021 88.3982 38.6649 87.0791 38.6649ZM87.4419 35.1035C88.1893 35.1035 88.8158 34.6968 89.3215 33.8834C89.8491 33.07 90.1129 31.8829 90.1129 30.3221C90.1129 29.113 89.893 28.2007 89.4534 27.5851C89.0137 26.9696 88.4861 26.6618 87.8705 26.6618C87.0791 26.6618 86.4196 27.0685 85.892 27.8819C85.3864 28.6733 85.1336 29.8604 85.1336 31.4433C85.1336 32.6963 85.3534 33.6196 85.7931 34.2132C86.2328 34.8067 86.7824 35.1035 87.4419 35.1035Z" fill="url(#paint4_linear_536_12615)"/>
<circle cx="14.8433" cy="15.4566" r="2.57327" fill="url(#paint5_linear_536_12615)"/>
</g>
<defs>
<filter id="filter0_d_536_12615" x="-3.55828" y="-1.10429" width="107.117" height="57.1166" filterUnits="userSpaceOnUse" color-interpolation-filters="sRGB">
<feFlood flood-opacity="0" result="BackgroundImageFix"/>
<feColorMatrix in="SourceAlpha" type="matrix" values="0 0 0 0 0 0 0 0 0 0 0 0 0 0 0 0 0 0 127 0" result="hardAlpha"/>
<feOffset dy="2.45399"/>
<feGaussianBlur stdDeviation="1.77914"/>
<feComposite in2="hardAlpha" operator="out"/>
<feColorMatrix type="matrix" values="0 0 0 0 0 0 0 0 0 0 0 0 0 0 0 0 0 0 0.65 0"/>
<feBlend mode="normal" in2="BackgroundImageFix" result="effect1_dropShadow_536_12615"/>
<feBlend mode="normal" in="SourceGraphic" in2="effect1_dropShadow_536_12615" result="shape"/>
</filter>
<linearGradient id="paint0_linear_536_12615" x1="22.3929" y1="8.45508" x2="22.3929" y2="41.5451" gradientUnits="userSpaceOnUse">
<stop offset="0.345" stop-color="#CC0F3C"/>
<stop offset="1" stop-color="#66081E"/>
</linearGradient>
<linearGradient id="paint1_linear_536_12615" x1="22.3929" y1="8.45508" x2="22.3929" y2="41.5451" gradientUnits="userSpaceOnUse">
<stop offset="0.345" stop-color="#CC0F3C"/>
<stop offset="1" stop-color="#66081E"/>
</linearGradient>
<linearGradient id="paint2_linear_536_12615" x1="22.3929" y1="8.45508" x2="22.3929" y2="41.5451" gradientUnits="userSpaceOnUse">
<stop offset="0.345" stop-color="#CC0F3C"/>
<stop offset="1" stop-color="#66081E"/>
</linearGradient>
<linearGradient id="paint3_linear_536_12615" x1="22.3929" y1="8.45508" x2="22.3929" y2="41.5451" gradientUnits="userSpaceOnUse">
<stop offset="0.345" stop-color="#CC0F3C"/>
<stop offset="1" stop-color="#66081E"/>
</linearGradient>
<linearGradient id="paint4_linear_536_12615" x1="71.126" y1="-1.5" x2="71.126" y2="51.5" gradientUnits="userSpaceOnUse">
<stop offset="0.345" stop-color="#CC0F3C"/>
<stop offset="1" stop-color="#66081E"/>
</linearGradient>
<linearGradient id="paint5_linear_536_12615" x1="14.8433" y1="12.8833" x2="14.8433" y2="18.0298" gradientUnits="userSpaceOnUse">
<stop offset="0.345" stop-color="#CC0F3C"/>
<stop offset="1" stop-color="#66081E"/>
</linearGradient>
</defs>
</svg>
