<svg width="100" height="50" viewBox="0 0 100 50" fill="none" xmlns="http://www.w3.org/2000/svg">
<g filter="url(#filter0_d_536_12804)">
<path d="M18.0602 17.3185C22.9208 12.9726 24.1836 9.59875 24.2074 8.45508C24.9461 10.7901 24.7507 17.1899 18.0602 24.1091C11.3697 31.0283 13.0805 36.7133 14.7721 38.691C3.12096 30.1849 11.9844 22.751 18.0602 17.3185Z" fill="url(#paint0_linear_536_12804)"/>
<path d="M28.7107 35.117C17.3311 40.5494 15.2487 34.4737 15.6299 30.7567C11.627 36.5466 17.131 39.4057 21.6342 39.1198C25.2368 38.8911 27.8529 36.3559 28.7107 35.117Z" fill="url(#paint1_linear_536_12804)"/>
<path d="M39.7185 28.7553C41.2625 16.9754 31.1648 11.9338 25.923 10.8854C29.7352 12.6724 37.2024 18.6195 36.5734 28.112C35.9444 37.6045 25.7323 40.9306 20.705 41.4072C26.3995 42.0981 38.1746 40.5351 39.7185 28.7553Z" fill="url(#paint2_linear_536_12804)"/>
<path d="M4.90796 13.1013C5.02555 13.1237 5.1498 13.1525 5.27963 13.1879C6.8417 13.5491 9.81488 14.2328 10.9837 15.4601C12.4133 16.9612 11.9368 20.6304 11.4841 22.5366C11.322 16.3251 7.491 13.7912 5.27963 13.1879C5.14448 13.1566 5.0199 13.1278 4.90796 13.1013Z" fill="url(#paint3_linear_536_12804)"/>
<path d="M62.9156 10.7347C63.4872 10.7347 63.9708 10.8776 64.3665 11.1633C64.7622 11.4271 64.9601 11.7569 64.9601 12.1526C64.9601 12.8561 64.7403 13.4277 64.3006 13.8673C63.8609 14.285 63.2344 14.4939 62.421 14.4939C61.1459 14.4939 60.1786 14.5049 59.5191 14.5268C59.4752 14.7906 59.2773 15.9778 58.9256 18.0882C58.5299 20.4404 58.2881 21.8804 58.2001 22.408L57.5076 26.7278C57.024 29.9594 56.6393 32.6633 56.3535 34.8397C56.8152 34.8177 57.4417 34.8067 58.2331 34.8067C59.3982 34.8067 60.1896 34.9606 60.6073 35.2684C61.025 35.5762 61.2339 36.0378 61.2339 36.6534C61.2339 37.2249 61.003 37.7086 60.5414 38.1043C60.1017 38.5 59.4752 38.6979 58.6618 38.6979C58.1122 38.6979 57.2438 38.6759 56.0567 38.6319C54.9575 38.5879 54.2321 38.566 53.8803 38.566C52.4954 38.566 50.9785 38.6869 49.3297 38.9287C48.6043 39.0386 48.0876 39.0936 47.7799 39.0936C47.2962 39.0936 46.8895 38.9617 46.5598 38.6979C46.23 38.434 46.0651 38.0493 46.0651 37.5437C46.0651 36.7523 46.4169 36.1368 47.1204 35.6971C47.8238 35.2574 48.8131 35.0266 50.0882 35.0046L51.638 34.9716L51.7369 34.2462C52.2645 30.7288 52.6493 28.2446 52.8911 26.7937L53.6165 22.4739C54.0562 19.9238 54.4519 17.2968 54.8036 14.5928L52.0337 14.6258C51.2423 14.6258 50.6927 14.5049 50.3849 14.263C50.0991 13.9992 49.9563 13.6365 49.9563 13.1748C49.9563 11.68 51.0335 10.8776 53.1878 10.7676C54.1991 10.7237 55.4302 10.7017 56.8811 10.7017L62.9156 10.7347ZM83.2653 31.1465C83.5511 31.1465 83.771 31.2784 83.9248 31.5422C84.1007 31.806 84.1886 32.1687 84.1886 32.6304C84.1886 33.5097 83.9798 34.1912 83.5621 34.6748C82.6608 35.774 81.6715 36.7193 80.5943 37.5107C79.5171 38.2802 78.4509 38.6649 77.3957 38.6649C75.7249 38.6649 74.4499 37.6866 73.5705 35.7301C72.6472 36.8952 71.8338 37.6756 71.1304 38.0713C70.4489 38.467 69.6465 38.6649 68.7232 38.6649C67.3822 38.6649 66.272 38.1702 65.3926 37.181C64.5353 36.1697 64.1066 34.8617 64.1066 33.2569C64.1066 31.4982 64.4803 29.8714 65.2278 28.3765C65.9752 26.8597 66.9974 25.6286 68.2945 24.6833C69.6135 23.716 71.0864 23.1444 72.7132 22.9686C73.1309 18.7037 73.9223 15.0654 75.0874 12.0537C76.2745 9.01994 77.8244 7.50307 79.737 7.50307C80.6823 7.50307 81.4627 7.93175 82.0782 8.78911C82.7157 9.64647 83.0345 10.9435 83.0345 12.6802C83.0345 15.1424 82.43 18.0222 81.2209 21.3198C80.0118 24.6173 78.396 28.0028 76.3735 31.4762C76.4614 32.7513 76.6483 33.6636 76.934 34.2132C77.2418 34.7628 77.6265 35.0376 78.0882 35.0376C78.6817 35.0376 79.2863 34.7738 79.9018 34.2462C80.5174 33.7186 81.3418 32.8392 82.375 31.6081C82.6388 31.3004 82.9356 31.1465 83.2653 31.1465ZM79.3742 10.7347C78.9565 10.7347 78.5389 11.4821 78.1212 12.977C77.7035 14.4499 77.3407 16.3845 77.033 18.7807C76.7472 21.1769 76.5383 23.683 76.4064 26.2991C78.8686 20.9351 80.0997 16.6263 80.0997 13.3727C80.0997 12.5373 80.0227 11.8888 79.8689 11.4271C79.737 10.9655 79.5721 10.7347 79.3742 10.7347ZM69.8773 35.3344C70.295 35.3344 70.7127 35.1695 71.1304 34.8397C71.5481 34.488 72.0757 33.8505 72.7132 32.9271C72.4933 31.74 72.3834 30.41 72.3834 28.9371C72.3834 28.4095 72.4054 27.5521 72.4494 26.365C71.2403 26.7388 70.229 27.5521 69.4156 28.8052C68.6242 30.0363 68.2285 31.4103 68.2285 32.9271C68.2285 34.532 68.7781 35.3344 69.8773 35.3344ZM87.0789 38.6649C85.7819 38.6649 84.6717 38.3461 83.7484 37.7086C82.847 37.0491 82.1655 36.1917 81.7039 35.1365C81.2422 34.0813 81.0114 32.9491 81.0114 31.74C81.0114 30.0693 81.3192 28.5854 81.9347 27.2883C82.5722 25.9693 83.4296 24.9471 84.5068 24.2216C85.584 23.4742 86.7931 23.1005 88.1341 23.1005C89.4311 23.1005 90.5413 23.4302 91.4646 24.0897C92.3879 24.7272 93.0804 25.5736 93.5421 26.6288C94.0037 27.684 94.2346 28.8162 94.2346 30.0253C94.2346 31.6961 93.9158 33.191 93.2783 34.51C92.6408 35.807 91.7724 36.8292 90.6732 37.5767C89.596 38.3021 88.3979 38.6649 87.0789 38.6649ZM87.4416 35.1035C88.1891 35.1035 88.8156 34.6968 89.3212 33.8834C89.8488 33.07 90.1126 31.8829 90.1126 30.3221C90.1126 29.113 89.8928 28.2007 89.4531 27.5851C89.0135 26.9696 88.4858 26.6618 87.8703 26.6618C87.0789 26.6618 86.4194 27.0685 85.8918 27.8819C85.3862 28.6733 85.1333 29.8604 85.1333 31.4433C85.1333 32.6963 85.3532 33.6196 85.7928 34.2132C86.2325 34.8067 86.7821 35.1035 87.4416 35.1035Z" fill="url(#paint4_linear_536_12804)"/>
<circle cx="14.8433" cy="15.4566" r="2.57327" fill="url(#paint5_linear_536_12804)"/>
</g>
<defs>
<filter id="filter0_d_536_12804" x="-3.55828" y="-1.10429" width="107.117" height="57.1166" filterUnits="userSpaceOnUse" color-interpolation-filters="sRGB">
<feFlood flood-opacity="0" result="BackgroundImageFix"/>
<feColorMatrix in="SourceAlpha" type="matrix" values="0 0 0 0 0 0 0 0 0 0 0 0 0 0 0 0 0 0 127 0" result="hardAlpha"/>
<feOffset dy="2.45399"/>
<feGaussianBlur stdDeviation="1.77914"/>
<feComposite in2="hardAlpha" operator="out"/>
<feColorMatrix type="matrix" values="0 0 0 0 0 0 0 0 0 0 0 0 0 0 0 0 0 0 0.65 0"/>
<feBlend mode="normal" in2="BackgroundImageFix" result="effect1_dropShadow_536_12804"/>
<feBlend mode="normal" in="SourceGraphic" in2="effect1_dropShadow_536_12804" result="shape"/>
</filter>
<linearGradient id="paint0_linear_536_12804" x1="22.3926" y1="8.45508" x2="22.3926" y2="41.5451" gradientUnits="userSpaceOnUse">
<stop offset="0.345" stop-color="#CC0F3C"/>
<stop offset="1" stop-color="#66081E"/>
</linearGradient>
<linearGradient id="paint1_linear_536_12804" x1="22.3926" y1="8.45508" x2="22.3926" y2="41.5451" gradientUnits="userSpaceOnUse">
<stop offset="0.345" stop-color="#CC0F3C"/>
<stop offset="1" stop-color="#66081E"/>
</linearGradient>
<linearGradient id="paint2_linear_536_12804" x1="22.3926" y1="8.45508" x2="22.3926" y2="41.5451" gradientUnits="userSpaceOnUse">
<stop offset="0.345" stop-color="#CC0F3C"/>
<stop offset="1" stop-color="#66081E"/>
</linearGradient>
<linearGradient id="paint3_linear_536_12804" x1="22.3926" y1="8.45508" x2="22.3926" y2="41.5451" gradientUnits="userSpaceOnUse">
<stop offset="0.345" stop-color="#CC0F3C"/>
<stop offset="1" stop-color="#66081E"/>
</linearGradient>
<linearGradient id="paint4_linear_536_12804" x1="71.1257" y1="-1.5" x2="71.1257" y2="51.5" gradientUnits="userSpaceOnUse">
<stop offset="0.345" stop-color="#CC0F3C"/>
<stop offset="1" stop-color="#66081E"/>
</linearGradient>
<linearGradient id="paint5_linear_536_12804" x1="14.8433" y1="12.8833" x2="14.8433" y2="18.0298" gradientUnits="userSpaceOnUse">
<stop offset="0.345" stop-color="#CC0F3C"/>
<stop offset="1" stop-color="#66081E"/>
</linearGradient>
</defs>
</svg>
