<svg width="163" height="86" viewBox="0 0 163 86" fill="none" xmlns="http://www.w3.org/2000/svg">
<g filter="url(#filter0_d_562_10403)">
<path d="M29.4382 30.4792C37.361 23.3953 39.4193 17.8959 39.4582 16.0317C40.6621 19.8378 40.3437 30.2695 29.4382 41.5478C18.5326 52.8261 21.3212 62.0927 24.0786 65.3162C5.0872 51.4513 19.5347 39.3341 29.4382 30.4792Z" fill="url(#paint0_linear_562_10403)"/>
<path d="M46.7984 59.4906C28.2497 68.3455 24.8554 58.442 25.4768 52.3834C18.9521 61.8209 27.9235 66.4813 35.2638 66.0153C41.1359 65.6424 45.4003 61.5102 46.7984 59.4906Z" fill="url(#paint1_linear_562_10403)"/>
<path d="M64.7412 49.1211C67.2579 29.9199 50.7986 21.702 42.2545 19.9931C48.4684 22.9059 60.64 32.5997 59.6147 48.0725C58.5894 63.5452 41.9438 68.9669 33.7491 69.7437C43.0312 70.8699 62.2246 68.3222 64.7412 49.1211Z" fill="url(#paint2_linear_562_10403)"/>
<path d="M8 23.605C8.19168 23.6416 8.39421 23.6885 8.60584 23.7462C11.152 24.3349 15.9983 25.4494 17.9035 27.4499C20.2337 29.8966 19.457 35.8776 18.7191 38.9846C18.455 28.8599 12.2104 24.7296 8.60584 23.7462C8.38554 23.6953 8.18246 23.6483 8 23.605Z" fill="url(#paint3_linear_562_10403)"/>
<path d="M102.553 20.7425C103.484 20.7425 104.273 20.9754 104.918 21.4412C105.563 21.8712 105.885 22.4087 105.885 23.0537C105.885 24.2004 105.527 25.1321 104.81 25.8487C104.093 26.5296 103.072 26.87 101.746 26.87C99.6679 26.87 98.0913 26.8879 97.0163 26.9237C96.9446 27.3537 96.6221 29.2887 96.0488 32.7287C95.4038 36.5629 95.0096 38.91 94.8663 39.77L93.7375 46.8112C92.9492 52.0787 92.3221 56.4862 91.8563 60.0337C92.6088 59.9979 93.63 59.98 94.92 59.98C96.8192 59.98 98.1092 60.2308 98.79 60.7325C99.4708 61.2342 99.8113 61.9867 99.8113 62.99C99.8113 63.9217 99.435 64.71 98.6825 65.355C97.9658 66 96.9446 66.3225 95.6188 66.3225C94.7229 66.3225 93.3075 66.2867 91.3725 66.215C89.5808 66.1433 88.3983 66.1075 87.825 66.1075C85.5675 66.1075 83.095 66.3046 80.4075 66.6988C79.225 66.8779 78.3829 66.9675 77.8813 66.9675C77.0929 66.9675 76.43 66.7525 75.8925 66.3225C75.355 65.8925 75.0862 65.2654 75.0862 64.4412C75.0862 63.1512 75.6596 62.1479 76.8063 61.4312C77.9529 60.7146 79.5654 60.3383 81.6438 60.3025L84.17 60.2487L84.3313 59.0662C85.1913 53.3329 85.8183 49.2837 86.2125 46.9187L87.395 39.8775C88.1117 35.7208 88.7567 31.4387 89.33 27.0312L84.815 27.085C83.525 27.085 82.6292 26.8879 82.1275 26.4937C81.6617 26.0637 81.4288 25.4725 81.4288 24.72C81.4288 22.2833 83.1846 20.9754 86.6963 20.7962C88.3446 20.7246 90.3513 20.6887 92.7163 20.6887L102.553 20.7425ZM135.723 54.0137C136.188 54.0137 136.547 54.2287 136.798 54.6587C137.084 55.0887 137.228 55.68 137.228 56.4325C137.228 57.8658 136.887 58.9767 136.206 59.765C134.737 61.5567 133.125 63.0975 131.369 64.3875C129.613 65.6417 127.875 66.2688 126.155 66.2688C123.432 66.2688 121.353 64.6742 119.92 61.485C118.415 63.3842 117.089 64.6562 115.943 65.3012C114.832 65.9463 113.524 66.2688 112.019 66.2688C109.833 66.2688 108.023 65.4625 106.59 63.85C105.193 62.2017 104.494 60.0696 104.494 57.4537C104.494 54.5871 105.103 51.9354 106.321 49.4987C107.54 47.0262 109.206 45.0196 111.32 43.4787C113.47 41.9021 115.871 40.9704 118.523 40.6837C119.203 33.7321 120.493 27.8017 122.393 22.8925C124.328 17.9475 126.854 15.475 129.971 15.475C131.512 15.475 132.784 16.1737 133.788 17.5712C134.827 18.9687 135.346 21.0829 135.346 23.9137C135.346 27.9271 134.361 32.6212 132.39 37.9962C130.419 43.3712 127.785 48.8896 124.489 54.5512C124.632 56.6296 124.937 58.1167 125.403 59.0125C125.904 59.9083 126.531 60.3562 127.284 60.3562C128.251 60.3562 129.237 59.9262 130.24 59.0662C131.243 58.2062 132.587 56.7729 134.271 54.7662C134.701 54.2646 135.185 54.0137 135.723 54.0137ZM129.38 20.7425C128.699 20.7425 128.018 21.9608 127.338 24.3975C126.657 26.7983 126.065 29.9517 125.564 33.8575C125.098 37.7633 124.758 41.8483 124.543 46.1125C128.556 37.3692 130.563 30.3458 130.563 25.0425C130.563 23.6808 130.437 22.6237 130.186 21.8712C129.971 21.1187 129.703 20.7425 129.38 20.7425ZM113.9 60.84C114.581 60.84 115.262 60.5712 115.943 60.0337C116.623 59.4604 117.483 58.4212 118.523 56.9162C118.164 54.9812 117.985 52.8133 117.985 50.4125C117.985 49.5525 118.021 48.155 118.093 46.22C116.122 46.8292 114.473 48.155 113.148 50.1975C111.858 52.2042 111.213 54.4437 111.213 56.9162C111.213 59.5321 112.108 60.84 113.9 60.84ZM141.939 66.2688C139.824 66.2688 138.015 65.7492 136.51 64.71C135.041 63.635 133.93 62.2375 133.177 60.5175C132.425 58.7975 132.049 56.9521 132.049 54.9812C132.049 52.2579 132.55 49.8392 133.554 47.725C134.593 45.575 135.99 43.9087 137.746 42.7262C139.502 41.5079 141.473 40.8987 143.659 40.8987C145.773 40.8987 147.582 41.4362 149.087 42.5112C150.592 43.5504 151.721 44.93 152.474 46.65C153.226 48.37 153.602 50.2154 153.602 52.1863C153.602 54.9096 153.083 57.3462 152.044 59.4962C151.004 61.6104 149.589 63.2767 147.797 64.495C146.042 65.6775 144.089 66.2688 141.939 66.2688ZM142.53 60.4637C143.748 60.4637 144.769 59.8008 145.594 58.475C146.454 57.1492 146.884 55.2142 146.884 52.67C146.884 50.6992 146.525 49.2121 145.809 48.2087C145.092 47.2054 144.232 46.7037 143.229 46.7037C141.939 46.7037 140.864 47.3667 140.004 48.6925C139.179 49.9825 138.767 51.9175 138.767 54.4975C138.767 56.54 139.126 58.045 139.842 59.0125C140.559 59.98 141.455 60.4637 142.53 60.4637Z" fill="url(#paint4_linear_562_10403)"/>
<circle cx="24.1944" cy="25.1944" r="4.19442" fill="url(#paint5_linear_562_10403)"/>
</g>
<defs>
<filter id="filter0_d_562_10403" x="-5.8" y="-1.8" width="174.6" height="97.6" filterUnits="userSpaceOnUse" color-interpolation-filters="sRGB">
<feFlood flood-opacity="0" result="BackgroundImageFix"/>
<feColorMatrix in="SourceAlpha" type="matrix" values="0 0 0 0 0 0 0 0 0 0 0 0 0 0 0 0 0 0 127 0" result="hardAlpha"/>
<feOffset dy="4"/>
<feGaussianBlur stdDeviation="2.9"/>
<feComposite in2="hardAlpha" operator="out"/>
<feColorMatrix type="matrix" values="0 0 0 0 0 0 0 0 0 0 0 0 0 0 0 0 0 0 0.65 0"/>
<feBlend mode="normal" in2="BackgroundImageFix" result="effect1_dropShadow_562_10403"/>
<feBlend mode="normal" in="SourceGraphic" in2="effect1_dropShadow_562_10403" result="shape"/>
</filter>
<linearGradient id="paint0_linear_562_10403" x1="36.5" y1="16.0317" x2="36.5" y2="69.9684" gradientUnits="userSpaceOnUse">
<stop offset="0.345" stop-color="#CC0F3C"/>
<stop offset="1" stop-color="#66081E"/>
</linearGradient>
<linearGradient id="paint1_linear_562_10403" x1="36.5" y1="16.0317" x2="36.5" y2="69.9684" gradientUnits="userSpaceOnUse">
<stop offset="0.345" stop-color="#CC0F3C"/>
<stop offset="1" stop-color="#66081E"/>
</linearGradient>
<linearGradient id="paint2_linear_562_10403" x1="36.5" y1="16.0317" x2="36.5" y2="69.9684" gradientUnits="userSpaceOnUse">
<stop offset="0.345" stop-color="#CC0F3C"/>
<stop offset="1" stop-color="#66081E"/>
</linearGradient>
<linearGradient id="paint3_linear_562_10403" x1="36.5" y1="16.0317" x2="36.5" y2="69.9684" gradientUnits="userSpaceOnUse">
<stop offset="0.345" stop-color="#CC0F3C"/>
<stop offset="1" stop-color="#66081E"/>
</linearGradient>
<linearGradient id="paint4_linear_562_10403" x1="115.5" y1="0" x2="115.5" y2="86" gradientUnits="userSpaceOnUse">
<stop offset="0.345" stop-color="#CC0F3C"/>
<stop offset="1" stop-color="#66081E"/>
</linearGradient>
<linearGradient id="paint5_linear_562_10403" x1="24.1944" y1="21" x2="24.1944" y2="29.3888" gradientUnits="userSpaceOnUse">
<stop offset="0.345" stop-color="#CC0F3C"/>
<stop offset="1" stop-color="#66081E"/>
</linearGradient>
</defs>
</svg>
