<svg width="15" height="14" viewBox="0 0 15 14" fill="none" xmlns="http://www.w3.org/2000/svg">
<path fill-rule="evenodd" clip-rule="evenodd" d="M12.4504 13.3646C12.8409 13.7551 13.4741 13.7551 13.8646 13.3646C14.2551 12.974 14.2551 12.3409 13.8646 11.9504L8.91485 7.00063L13.8646 2.05092C14.2551 1.66039 14.2551 1.02723 13.8646 0.636702C13.474 0.246178 12.8409 0.246178 12.4504 0.636702L7.50064 5.58641L2.55087 0.636643C2.16034 0.246119 1.52718 0.246119 1.13666 0.636643C0.746131 1.02717 0.74613 1.66033 1.13666 2.05086L6.08643 7.00063L1.13664 11.9504C0.746119 12.3409 0.746119 12.9741 1.13664 13.3646C1.52717 13.7551 2.16033 13.7551 2.55086 13.3646L7.50064 8.41484L12.4504 13.3646Z" fill="white"/>
</svg>
