<svg width="30" height="30" viewBox="0 0 30 30" fill="none" xmlns="http://www.w3.org/2000/svg">
<path d="M12.3764 3.36221C13.4493 1.10192 16.5493 1.10192 17.6223 3.3622L19.4765 7.26856C19.9026 8.16612 20.7262 8.78824 21.6789 8.93217L25.8251 9.55858C28.2242 9.92104 29.1822 12.9864 27.4462 14.7458L24.4459 17.7864C23.7565 18.4851 23.442 19.4917 23.6047 20.4782L24.313 24.7717C24.7228 27.256 22.2148 29.1505 20.069 27.9776L16.3605 25.9505C15.5083 25.4847 14.4904 25.4847 13.6382 25.9505L9.9297 27.9776C7.78387 29.1505 5.27591 27.256 5.68573 24.7717L6.394 20.4782C6.55674 19.4917 6.24216 18.4851 5.55279 17.7864L2.55252 14.7458C0.816504 12.9864 1.77445 9.92104 4.17356 9.55858L8.31985 8.93217C9.27254 8.78824 10.0961 8.16612 10.5222 7.26856L12.3764 3.36221Z" stroke="white" stroke-width="1.5" stroke-linejoin="round"/>
</svg>
