<svg width="24" height="24" viewBox="0 0 24 24" fill="none" xmlns="http://www.w3.org/2000/svg">
<path d="M11.7552 0.345373C11.8748 0.176659 12.1252 0.176659 12.2448 0.345373L13.053 1.48576C13.1553 1.63022 13.3599 1.65506 13.4939 1.5393L14.5515 0.625459C14.708 0.490263 14.9511 0.550186 15.0268 0.742612L15.5386 2.04328C15.6034 2.20803 15.7961 2.2811 15.9539 2.20077L17.1994 1.56659C17.3837 1.47277 17.6054 1.58913 17.6329 1.79409L17.8186 3.17944C17.8421 3.35492 18.0117 3.47198 18.1841 3.43174L19.5452 3.11408C19.7466 3.06708 19.934 3.23312 19.9117 3.4387L19.7604 4.82822C19.7412 5.00423 19.8779 5.15847 20.0549 5.16067L21.4525 5.17798C21.6593 5.18054 21.8015 5.38661 21.7306 5.58086L21.2512 6.8938C21.1905 7.06011 21.2862 7.24257 21.4576 7.28707L22.8105 7.63835C23.0106 7.69032 23.0994 7.92445 22.9841 8.09607L22.2044 9.25613C22.1056 9.40308 22.1549 9.60315 22.3107 9.68737L23.5401 10.3522C23.722 10.4506 23.7522 10.6991 23.5992 10.8382L22.5645 11.7779C22.4334 11.897 22.4334 12.103 22.5645 12.2221L23.5992 13.1618C23.7522 13.3009 23.722 13.5494 23.5401 13.6478L22.3107 14.3126C22.1549 14.3968 22.1056 14.5969 22.2044 14.7439L22.9841 15.9039C23.0994 16.0756 23.0106 16.3097 22.8105 16.3616L21.4576 16.7129C21.2862 16.7574 21.1905 16.9399 21.2512 17.1062L21.7306 18.4191C21.8015 18.6134 21.6593 18.8195 21.4525 18.822L20.0549 18.8393C19.8779 18.8415 19.7412 18.9958 19.7604 19.1718L19.9117 20.5613C19.934 20.7669 19.7466 20.9329 19.5452 20.8859L18.1841 20.5683C18.0117 20.528 17.8421 20.6451 17.8186 20.8206L17.6329 22.2059C17.6054 22.4109 17.3837 22.5272 17.1994 22.4334L15.9539 21.7992C15.7961 21.7189 15.6034 21.792 15.5386 21.9567L15.0268 23.2574C14.9511 23.4498 14.708 23.5097 14.5515 23.3745L13.4939 22.4607C13.3599 22.3449 13.1553 22.3698 13.053 22.5142L12.2448 23.6546C12.1252 23.8233 11.8748 23.8233 11.7552 23.6546L10.947 22.5142C10.8447 22.3698 10.6401 22.3449 10.5061 22.4607L9.44852 23.3745C9.29205 23.5097 9.04893 23.4498 8.97321 23.2574L8.46142 21.9567C8.39659 21.792 8.20392 21.7189 8.04614 21.7992L6.80055 22.4334C6.61628 22.5272 6.39456 22.4109 6.3671 22.2059L6.18144 20.8206C6.15793 20.6451 5.98834 20.528 5.81592 20.5683L4.45476 20.8859C4.25339 20.9329 4.06596 20.7669 4.08834 20.5613L4.23962 19.1718C4.25878 18.9958 4.12214 18.8415 3.9451 18.8393L2.54747 18.822C2.3407 18.8195 2.19846 18.6134 2.26939 18.4191L2.7488 17.1062C2.80953 16.9399 2.71377 16.7574 2.5424 16.7129L1.18953 16.3616C0.98938 16.3097 0.900589 16.0756 1.01594 15.9039L1.79563 14.7439C1.8944 14.5969 1.84509 14.3968 1.68934 14.3126L0.459852 13.6478C0.277956 13.5494 0.247774 13.3009 0.400845 13.1618L1.4355 12.2221C1.56657 12.103 1.56657 11.897 1.4355 11.7779L0.400846 10.8382C0.247774 10.6991 0.277956 10.4506 0.459852 10.3522L1.68934 9.68737C1.84508 9.60315 1.8944 9.40308 1.79563 9.25613L1.01594 8.09607C0.900589 7.92445 0.98938 7.69032 1.18953 7.63835L2.5424 7.28707C2.71377 7.24257 2.80953 7.06011 2.7488 6.8938L2.26939 5.58086C2.19846 5.38661 2.3407 5.18054 2.54747 5.17798L3.9451 5.16067C4.12214 5.15847 4.25878 5.00423 4.23962 4.82822L4.08834 3.4387C4.06596 3.23312 4.25339 3.06708 4.45476 3.11408L5.81592 3.43174C5.98834 3.47198 6.15793 3.35492 6.18144 3.17944L6.3671 1.79409C6.39456 1.58913 6.61628 1.47277 6.80055 1.56659L8.04614 2.20077C8.20392 2.2811 8.39659 2.20803 8.46142 2.04328L8.97321 0.742611C9.04893 0.550186 9.29205 0.490262 9.44852 0.625459L10.5061 1.5393C10.6401 1.65506 10.8447 1.63022 10.947 1.48576L11.7552 0.345373Z" fill="#CC0F3C"/>
</svg>
