<svg width="22" height="14" viewBox="0 0 22 14" fill="none" xmlns="http://www.w3.org/2000/svg">
<path fill-rule="evenodd" clip-rule="evenodd" d="M2.36619 0.276023L0 13.998L11.7336 7.91102L22 13.998L19.1716 0.329121L17.7708 0.000221988C17.5982 -0.040309 17.4283 0.0769103 17.4049 0.25267L17.1903 1.86334C17.163 2.06872 16.9406 2.1852 16.7562 2.09073L15.3207 1.3554C15.1626 1.27443 14.9692 1.34774 14.9045 1.51313L14.3139 3.02334C14.2383 3.21652 13.9942 3.27657 13.8377 3.14048L12.619 2.08103C12.4848 1.96441 12.2793 1.98936 12.1769 2.13468L11.2452 3.45743C11.1257 3.62708 10.8741 3.62708 10.7546 3.45743L9.8229 2.13468C9.72054 1.98936 9.51497 1.96441 9.38082 2.08103L8.16213 3.14048C8.00558 3.27657 7.76147 3.21652 7.68591 3.02334L7.09528 1.51313C7.03059 1.34774 6.83718 1.27443 6.67911 1.3554L5.24362 2.09073C5.0592 2.1852 4.83682 2.06872 4.80947 1.86333L4.59493 0.252669C4.57152 0.0769097 4.4016 -0.0403089 4.22898 0.000222077L2.65909 0.368838C2.54527 0.395562 2.43583 0.354185 2.36619 0.276023Z" fill="#CC0F3C"/>
</svg>
