<svg width="30" height="30" viewBox="0 0 30 30" fill="none" xmlns="http://www.w3.org/2000/svg">
<path d="M10.5076 12.9129C9.74143 11.3835 8.15966 10.3337 6.33268 10.3337C3.75535 10.3337 1.66602 12.423 1.66602 15.0003C1.66602 17.5777 3.75535 19.667 6.33268 19.667C8.15966 19.667 9.74143 18.6171 10.5076 17.0878M10.5076 12.9129C10.8223 13.541 10.9993 14.25 10.9993 15.0003C10.9993 15.7507 10.8223 16.4597 10.5076 17.0878M10.5076 12.9129L19.4911 8.42111M10.5076 17.0878L19.4911 21.5795M19.4911 8.42111C20.2573 9.95046 21.839 11.0003 23.666 11.0003C26.2433 11.0003 28.3327 8.91099 28.3327 6.33366C28.3327 3.75633 26.2433 1.66699 23.666 1.66699C21.0887 1.66699 18.9993 3.75633 18.9993 6.33366C18.9993 7.08401 19.1764 7.793 19.4911 8.42111ZM19.4911 21.5795C19.1764 22.2077 18.9993 22.9166 18.9993 23.667C18.9993 26.2443 21.0887 28.3337 23.666 28.3337C26.2433 28.3337 28.3327 26.2443 28.3327 23.667C28.3327 21.0897 26.2433 19.0003 23.666 19.0003C21.839 19.0003 20.2573 20.0502 19.4911 21.5795Z" stroke="white" stroke-width="1.5" stroke-linecap="round"/>
</svg>
