<svg width="30" height="22" viewBox="0 0 30 22" fill="none" xmlns="http://www.w3.org/2000/svg">
<path d="M27.1731 8.13779C28.7192 9.76455 28.7192 12.2361 27.1731 13.8629C24.5654 16.6065 20.0867 20.3337 14.9993 20.3337C9.912 20.3337 5.43334 16.6065 2.82562 13.8629C1.27948 12.2361 1.27948 9.76455 2.82562 8.13779C5.43334 5.3941 9.91199 1.66699 14.9993 1.66699C20.0867 1.66699 24.5654 5.3941 27.1731 8.13779Z" stroke="white" stroke-width="1.5"/>
<path d="M18.9993 11.0003C18.9993 13.2095 17.2085 15.0003 14.9993 15.0003C12.7902 15.0003 10.9993 13.2095 10.9993 11.0003C10.9993 8.79119 12.7902 7.00033 14.9993 7.00033C17.2085 7.00033 18.9993 8.79119 18.9993 11.0003Z" stroke="white" stroke-width="1.5"/>
</svg>
