<svg width="40" height="40" viewBox="0 0 40 40" fill="none" xmlns="http://www.w3.org/2000/svg">
<rect width="40" height="40" rx="20" fill="white" fill-opacity="0.4"/>
<path fill-rule="evenodd" clip-rule="evenodd" d="M14.5 19.25C14.5 19.9404 15.0596 20.5 15.75 20.5C16.4404 20.5 17 19.9404 17 19.25C17 18.5596 16.4404 18 15.75 18C15.0596 18 14.5 18.5596 14.5 19.25ZM20.75 20.5C20.0596 20.5 19.5 19.9404 19.5 19.25C19.5 18.5596 20.0596 18 20.75 18C21.4404 18 22 18.5596 22 19.25C22 19.9404 21.4404 20.5 20.75 20.5ZM25.75 20.5C25.0596 20.5 24.5 19.9404 24.5 19.25C24.5 18.5596 25.0596 18 25.75 18C26.4404 18 27 18.5596 27 19.25C27 19.9404 26.4404 20.5 25.75 20.5Z" fill="#0B0B0B"/>
</svg>
